<svg width="14" height="15" viewBox="0 0 14 15" fill="none" xmlns="http://www.w3.org/2000/svg">
<path d="M10.6508 6.94305C11.1948 6.42066 11.57 5.74748 11.7283 5.0101C11.8865 4.27272 11.8205 3.50485 11.5388 2.80526C11.2571 2.10568 10.7726 1.50637 10.1475 1.08441C9.5224 0.662461 8.78537 0.437164 8.03119 0.4375L1.49951 0.43707C1.31718 0.43707 1.14231 0.509503 1.01338 0.638435C0.884445 0.767366 0.812012 0.942234 0.812012 1.12457V14.1871C0.812012 14.3694 0.884433 14.5442 1.01335 14.6732C1.14226 14.8021 1.3171 14.8745 1.49943 14.8746L9.06244 14.875C10.0159 14.875 10.9399 14.5447 11.6773 13.9404C12.4147 13.336 12.92 12.4948 13.1072 11.56C13.2944 10.6251 13.152 9.65422 12.7042 8.8125C12.2563 7.97078 11.5307 7.31017 10.6508 6.94305ZM2.18693 1.81216L8.03119 1.8125C8.66937 1.8125 9.28141 2.06602 9.73267 2.51727C10.1839 2.96853 10.4374 3.58057 10.4374 4.21875C10.4374 4.85693 10.1839 5.46897 9.73267 5.92023C9.28141 6.37148 8.66937 6.625 8.03119 6.625H2.18693V1.81216ZM9.06244 13.5L2.18693 13.4997V8H9.06244C9.79179 8 10.4913 8.28973 11.007 8.80546C11.5227 9.32118 11.8124 10.0207 11.8124 10.75C11.8124 11.4793 11.5227 12.1788 11.007 12.6945C10.4913 13.2103 9.79179 13.5 9.06244 13.5Z" fill="#181818"/>
</svg>
