<svg width="18" height="14" viewBox="0 0 18 14" fill="none" xmlns="http://www.w3.org/2000/svg">
<path d="M4.875 1.5C4.875 1.31766 4.94743 1.1428 5.07636 1.01386C5.2053 0.884933 5.38016 0.8125 5.5625 0.8125H16.5625C16.7448 0.8125 16.9197 0.884933 17.0486 1.01386C17.1776 1.1428 17.25 1.31766 17.25 1.5C17.25 1.68234 17.1776 1.8572 17.0486 1.98614C16.9197 2.11507 16.7448 2.1875 16.5625 2.1875H5.5625C5.38016 2.1875 5.2053 2.11507 5.07636 1.98614C4.94743 1.8572 4.875 1.68234 4.875 1.5ZM16.5625 6.3125H5.56302C5.38068 6.3125 5.20581 6.38493 5.07688 6.51386C4.94795 6.6428 4.87552 6.81766 4.87552 7C4.87552 7.18234 4.94795 7.35721 5.07688 7.48614C5.20581 7.61507 5.38068 7.6875 5.56302 7.6875H16.5625C16.7448 7.6875 16.9197 7.61507 17.0486 7.48614C17.1776 7.35721 17.25 7.18234 17.25 7C17.25 6.81766 17.1776 6.6428 17.0486 6.51386C16.9197 6.38493 16.7448 6.3125 16.5625 6.3125ZM16.5625 11.8125H5.56302C5.38068 11.8125 5.20581 11.8849 5.07688 12.0139C4.94795 12.1428 4.87552 12.3177 4.87552 12.5C4.87552 12.6823 4.94795 12.8572 5.07688 12.9861C5.20581 13.1151 5.38068 13.1875 5.56302 13.1875H16.5625C16.7448 13.1875 16.9197 13.1151 17.0486 12.9861C17.1776 12.8572 17.25 12.6823 17.25 12.5C17.25 12.3177 17.1776 12.1428 17.0486 12.0139C16.9197 11.8849 16.7448 11.8125 16.5625 11.8125ZM1.78125 0.46875C1.57729 0.46875 1.37791 0.529232 1.20832 0.642547C1.03873 0.755862 0.906553 0.916921 0.8285 1.10536C0.750447 1.29379 0.730025 1.50114 0.769816 1.70119C0.809607 1.90123 0.907824 2.08498 1.05205 2.2292C1.19627 2.37343 1.38002 2.47164 1.58006 2.51144C1.78011 2.55123 1.98746 2.5308 2.17589 2.45275C2.36433 2.3747 2.52539 2.24252 2.6387 2.07293C2.75202 1.90334 2.8125 1.70396 2.8125 1.5C2.8125 1.2265 2.70385 0.964193 2.51045 0.770796C2.31706 0.577399 2.05476 0.46875 1.78125 0.46875ZM1.78125 5.96875C1.57729 5.96875 1.37791 6.02923 1.20832 6.14255C1.03873 6.25586 0.906553 6.41692 0.8285 6.60536C0.750447 6.79379 0.730025 7.00114 0.769816 7.20119C0.809607 7.40123 0.907824 7.58498 1.05205 7.7292C1.19627 7.87343 1.38002 7.97164 1.58006 8.01144C1.78011 8.05123 1.98746 8.0308 2.17589 7.95275C2.36433 7.8747 2.52539 7.74252 2.6387 7.57293C2.75202 7.40334 2.8125 7.20396 2.8125 7C2.8125 6.7265 2.70385 6.46419 2.51045 6.2708C2.31706 6.0774 2.05476 5.96875 1.78125 5.96875ZM1.78125 11.4688C1.57729 11.4688 1.37791 11.5292 1.20832 11.6425C1.03873 11.7559 0.906553 11.9169 0.8285 12.1054C0.750447 12.2938 0.730025 12.5011 0.769816 12.7012C0.809607 12.9012 0.907824 13.085 1.05205 13.2292C1.19627 13.3734 1.38002 13.4716 1.58006 13.5114C1.78011 13.5512 1.98746 13.5308 2.17589 13.4528C2.36433 13.3747 2.52539 13.2425 2.6387 13.0729C2.75202 12.9033 2.8125 12.704 2.8125 12.5C2.8125 12.2265 2.70385 11.9642 2.51045 11.7708C2.31706 11.5774 2.05476 11.4688 1.78125 11.4688Z" fill="#424242"/>
</svg>
