<svg width="14" height="14" viewBox="0 0 14 14" fill="none" xmlns="http://www.w3.org/2000/svg">
<path d="M13.187 0.81207C13.187 0.994407 13.1146 1.16928 12.9856 1.29821C12.8567 1.42714 12.6818 1.49957 12.4995 1.49957H9.55753L5.89092 12.4996H8.37451C8.55685 12.4996 8.73172 12.572 8.86065 12.7009C8.98958 12.8299 9.06201 13.0047 9.06201 13.1871C9.06201 13.3694 8.98958 13.5443 8.86065 13.6732C8.73172 13.8021 8.55685 13.8746 8.37451 13.8746H4.9395L4.9371 13.8747L4.93478 13.8746H1.49951C1.31718 13.8746 1.14231 13.8021 1.01338 13.6732C0.884445 13.5443 0.812012 13.3694 0.812012 13.1871C0.812012 13.0047 0.884445 12.8299 1.01338 12.7009C1.14231 12.572 1.31718 12.4996 1.49951 12.4996H4.4415L8.10819 1.49957H5.6246C5.44226 1.49957 5.26739 1.42714 5.13846 1.29821C5.00953 1.16928 4.9371 0.994407 4.9371 0.81207C4.9371 0.629734 5.00953 0.454866 5.13846 0.325935C5.26739 0.197003 5.44226 0.12457 5.6246 0.12457H12.4996C12.6819 0.12457 12.8568 0.197003 12.9857 0.325935C13.1147 0.454866 13.1871 0.629734 13.1871 0.81207H13.187Z" fill="#424242"/>
</svg>
