<svg width="18" height="16" viewBox="0 0 18 16" fill="none" xmlns="http://www.w3.org/2000/svg">
<path d="M17.9375 12.8121V1.8125C17.9371 1.44795 17.7921 1.09845 17.5343 0.840681C17.2765 0.582907 16.927 0.437909 16.5625 0.4375H1.4375C1.07295 0.437909 0.723454 0.582907 0.46568 0.840681C0.207907 1.09845 0.0629094 1.44795 0.0625 1.8125V14.1875C0.0629094 14.552 0.207907 14.9015 0.46568 15.1593C0.723454 15.4171 1.07295 15.5621 1.4375 15.5625H16.5625C16.927 15.5621 17.2765 15.4171 17.5343 15.1593C17.7921 14.9015 17.9371 14.552 17.9375 14.1875V12.8121ZM16.5625 1.8125L16.5632 11.1533L14.0973 8.6875C13.8392 8.43002 13.4896 8.28542 13.125 8.28542C12.7604 8.28542 12.4108 8.43002 12.1527 8.6875L10.3751 10.4653L6.5348 6.625C6.27672 6.36752 5.92705 6.22292 5.5625 6.22292C5.19795 6.22292 4.84828 6.36752 4.5902 6.625L1.4375 9.7777V1.8125H16.5625ZM16.5625 14.1875H1.4375V11.7223L5.5625 7.5973L9.4027 11.4375C9.66059 11.6953 10.0103 11.8402 10.375 11.8402C10.7397 11.8402 11.0894 11.6953 11.3473 11.4375L13.125 9.6598L16.5634 13.0982V14.1875H16.5625ZM10.677 6.32293C10.5571 6.203 10.4686 6.05536 10.4194 5.89307C10.3702 5.73079 10.3617 5.55887 10.3948 5.39255C10.4279 5.22622 10.5015 5.07062 10.6091 4.93954C10.7167 4.80845 10.855 4.70592 11.0116 4.64103C11.1683 4.57613 11.3386 4.55088 11.5073 4.5675C11.6761 4.58413 11.8382 4.64212 11.9792 4.73633C12.1202 4.83055 12.2358 4.95808 12.3157 5.10764C12.3957 5.2572 12.4375 5.42417 12.4375 5.59375V5.59409C12.4374 5.79804 12.3769 5.99738 12.2636 6.16693C12.1502 6.33647 11.9891 6.4686 11.8007 6.54661C11.6123 6.62462 11.4049 6.64501 11.2049 6.60519C11.0049 6.56538 10.8212 6.46715 10.677 6.32293Z" fill="#424242"/>
</svg>
