<svg width="18" height="18" viewBox="0 0 18 18" fill="none" xmlns="http://www.w3.org/2000/svg">
<path d="M17.3578 5.1109C17.3594 5.69798 17.2445 6.27956 17.0199 6.82196C16.7952 7.36436 16.4652 7.85682 16.0489 8.27082L13.6184 10.7016C12.7797 11.5383 11.6433 12.0082 10.4585 12.0082C9.27376 12.0082 8.13736 11.5383 7.29861 10.7016C7.16966 10.5726 7.09721 10.3978 7.09721 10.2154C7.0972 10.0331 7.16963 9.85817 7.29856 9.72922C7.4275 9.60028 7.60237 9.52783 7.78472 9.52782C7.96707 9.52781 8.14196 9.60025 8.2709 9.72918C8.85154 10.3085 9.63829 10.6339 10.4585 10.6339C11.2788 10.6339 12.0655 10.3085 12.6462 9.72918L15.0766 7.29844C15.649 6.71665 15.9683 5.93226 15.965 5.11612C15.9617 4.29997 15.636 3.51821 15.0589 2.9411C14.4818 2.364 13.7 2.03831 12.8839 2.03499C12.0677 2.03167 11.2833 2.35097 10.7016 2.92336L9 4.62484C8.93615 4.68868 8.86035 4.73932 8.77693 4.77387C8.69351 4.80842 8.60411 4.8262 8.51382 4.82619C8.42353 4.82619 8.33412 4.8084 8.25071 4.77384C8.16729 4.73929 8.0915 4.68864 8.02766 4.62479C7.96381 4.56095 7.91317 4.48515 7.87862 4.40173C7.84407 4.31831 7.82629 4.2289 7.8263 4.13861C7.8263 4.04832 7.84409 3.95892 7.87865 3.8755C7.9132 3.79209 7.96385 3.7163 8.0277 3.65245L9.72918 1.95106C10.3541 1.32608 11.1504 0.900462 12.0173 0.728028C12.8841 0.555594 13.7827 0.64409 14.5992 0.982325C15.4158 1.32056 16.1137 1.89334 16.6048 2.62824C17.0958 3.36314 17.3579 4.22714 17.3578 5.11098L17.3578 5.1109ZM9 13.3752L7.29843 15.0766C7.01201 15.3678 6.67079 15.5993 6.29444 15.7579C5.91809 15.9165 5.51407 15.999 5.10568 16.0006C4.69728 16.0023 4.2926 15.9231 3.91497 15.7676C3.53735 15.6121 3.19425 15.3833 2.90547 15.0945C2.61669 14.8057 2.38794 14.4626 2.23242 14.085C2.0769 13.7074 1.99769 13.3027 1.99935 12.8943C2.00102 12.4859 2.08352 12.0819 2.24211 11.7056C2.4007 11.3292 2.63223 10.988 2.92336 10.7016L5.35393 8.27082C5.93454 7.69142 6.72129 7.36602 7.54155 7.36602C8.36181 7.36602 9.14856 7.69142 9.72918 8.27082C9.79302 8.33466 9.86882 8.3853 9.95224 8.41985C10.0357 8.4544 10.1251 8.47218 10.2154 8.47218C10.3056 8.47217 10.395 8.45439 10.4785 8.41983C10.5619 8.38527 10.6377 8.33463 10.7015 8.27078C10.7654 8.20693 10.816 8.13113 10.8505 8.04771C10.8851 7.9643 10.9029 7.87489 10.9029 7.7846C10.9029 7.69431 10.8851 7.6049 10.8505 7.52149C10.816 7.43807 10.7653 7.36228 10.7015 7.29844C9.86271 6.46169 8.72632 5.99177 7.54155 5.99177C6.35678 5.99177 5.22039 6.46169 4.38163 7.29844L1.95097 9.72918C1.11291 10.5672 0.64209 11.7039 0.64209 12.8891C0.64209 14.0743 1.11291 15.211 1.95097 16.049C2.78904 16.8871 3.92569 17.3579 5.11089 17.3579C6.29609 17.3579 7.43275 16.8871 8.27082 16.049L9.97229 14.3475C10.0999 14.2183 10.1712 14.0438 10.1707 13.8622C10.1701 13.6806 10.0977 13.5066 9.96931 13.3781C9.84088 13.2497 9.66686 13.1774 9.48525 13.1768C9.30364 13.1763 9.12919 13.2476 9 13.3752V13.3752Z" fill="#424242"/>
</svg>
