<svg width="18" height="15" viewBox="0 0 18 15" fill="none" xmlns="http://www.w3.org/2000/svg">
<path d="M17.2498 8C17.2498 8.18234 17.1774 8.35721 17.0485 8.48614C16.9195 8.61507 16.7447 8.6875 16.5623 8.6875H6.93741C6.75508 8.6875 6.58021 8.61507 6.45128 8.48614C6.32234 8.35721 6.24991 8.18234 6.24991 8C6.24991 7.81766 6.32234 7.6428 6.45128 7.51386C6.58021 7.38493 6.75508 7.3125 6.93741 7.3125H16.5623C16.7447 7.3125 16.9195 7.38493 17.0485 7.51386C17.1774 7.6428 17.2498 7.81766 17.2498 8ZM6.93741 3.1875H16.5623C16.7447 3.1875 16.9195 3.11507 17.0485 2.98614C17.1774 2.8572 17.2498 2.68234 17.2498 2.5C17.2498 2.31766 17.1774 2.1428 17.0485 2.01386C16.9195 1.88493 16.7447 1.8125 16.5623 1.8125H6.93741C6.75508 1.8125 6.58021 1.88493 6.45128 2.01386C6.32234 2.1428 6.24991 2.31766 6.24991 2.5C6.24991 2.68234 6.32234 2.8572 6.45128 2.98614C6.58021 3.11507 6.75508 3.1875 6.93741 3.1875ZM16.5623 12.8125H6.93733C6.75499 12.8125 6.58012 12.8849 6.45119 13.0139C6.32226 13.1428 6.24983 13.3177 6.24983 13.5C6.24983 13.6823 6.32226 13.8572 6.45119 13.9861C6.58012 14.1151 6.75499 14.1875 6.93733 14.1875H16.5623C16.7447 14.1875 16.9195 14.1151 17.0485 13.9861C17.1774 13.8572 17.2498 13.6823 17.2498 13.5C17.2498 13.3177 17.1774 13.1428 17.0485 13.0139C16.9195 12.8849 16.7447 12.8125 16.5623 12.8125ZM1.7449 2.77113L2.12491 2.58121V6.28082C2.12491 6.46316 2.19734 6.63803 2.32628 6.76696C2.45521 6.89589 2.63008 6.96832 2.81241 6.96832C2.99475 6.96832 3.16962 6.89589 3.29855 6.76696C3.42748 6.63803 3.49991 6.46316 3.49991 6.28082V1.46875C3.49991 1.35156 3.46995 1.23632 3.41288 1.13396C3.35581 1.03161 3.27352 0.945544 3.17383 0.883938C3.07414 0.822331 2.96036 0.78723 2.84329 0.781967C2.72622 0.776704 2.60974 0.801455 2.50493 0.853867L1.12993 1.54137C1.04846 1.58132 0.975706 1.637 0.91586 1.7052C0.856015 1.7734 0.810261 1.85277 0.781238 1.93874C0.752214 2.0247 0.740495 2.11557 0.746756 2.20609C0.753017 2.2966 0.777133 2.38499 0.817716 2.46614C0.858298 2.54729 0.914543 2.61961 0.983208 2.67892C1.05187 2.73824 1.1316 2.78337 1.21779 2.81172C1.30398 2.84007 1.39493 2.85108 1.4854 2.84412C1.57587 2.83715 1.66406 2.81235 1.7449 2.77113ZM4.20786 11.6356C4.35534 11.417 4.45546 11.1699 4.50178 10.9103C4.5481 10.6507 4.5396 10.3843 4.47683 10.1281C4.41406 9.872 4.29841 9.63183 4.1373 9.42306C3.9762 9.21428 3.7732 9.04151 3.54135 8.91585C3.3095 8.79019 3.05394 8.71442 2.79106 8.6934C2.52819 8.67239 2.26383 8.70659 2.01496 8.79382C1.7661 8.88104 1.53823 9.01936 1.346 9.19989C1.15376 9.38042 1.00142 9.59917 0.898755 9.84207C0.862849 9.92535 0.843774 10.0149 0.842628 10.1056C0.841482 10.1963 0.858288 10.2863 0.892079 10.3704C0.925869 10.4546 0.975975 10.5312 1.03951 10.5959C1.10305 10.6607 1.17876 10.7122 1.26229 10.7475C1.34581 10.7828 1.4355 10.8012 1.52619 10.8018C1.61687 10.8023 1.70676 10.7848 1.79068 10.7505C1.8746 10.7161 1.95089 10.6654 2.01516 10.6015C2.07942 10.5375 2.13039 10.4614 2.16513 10.3776C2.19294 10.312 2.23406 10.2528 2.28589 10.2039C2.33772 10.1549 2.39914 10.1173 2.46626 10.0932C2.53338 10.0692 2.60475 10.0594 2.67587 10.0643C2.74699 10.0693 2.81631 10.0889 2.87946 10.122C2.9426 10.1551 2.9982 10.2009 3.04275 10.2566C3.0873 10.3122 3.11982 10.3765 3.13827 10.4454C3.15672 10.5142 3.1607 10.5862 3.14995 10.6567C3.1392 10.7271 3.11395 10.7946 3.07581 10.8548L0.88724 13.7752C0.810674 13.8773 0.764064 13.9988 0.752631 14.1259C0.741198 14.2531 0.765394 14.3809 0.822508 14.4951C0.879621 14.6092 0.967397 14.7053 1.076 14.7724C1.18461 14.8395 1.30975 14.875 1.43741 14.875H3.84366C4.026 14.875 4.20087 14.8026 4.3298 14.6736C4.45873 14.5447 4.53116 14.3698 4.53116 14.1875C4.53116 14.0052 4.45873 13.8303 4.3298 13.7014C4.20087 13.5724 4.026 13.5 3.84366 13.5H2.81172L4.18836 11.6631C4.19506 11.6541 4.20159 11.645 4.20786 11.6356Z" fill="#424242"/>
</svg>
