<svg width="18" height="16" viewBox="0 0 18 16" fill="none" xmlns="http://www.w3.org/2000/svg">
<path d="M17.25 14.5625C17.25 14.7448 17.1776 14.9197 17.0486 15.0486C16.9197 15.1776 16.7448 15.25 16.5625 15.25H1.4375C1.25516 15.25 1.0803 15.1776 0.951364 15.0486C0.822433 14.9197 0.75 14.7448 0.75 14.5625C0.75 14.3802 0.822433 14.2053 0.951364 14.0764C1.0803 13.9474 1.25516 13.875 1.4375 13.875H16.5625C16.7448 13.875 16.9197 13.9474 17.0486 14.0764C17.1776 14.2053 17.25 14.3802 17.25 14.5625ZM9 12.5C10.6405 12.4982 12.2132 11.8457 13.3732 10.6857C14.5332 9.52571 15.1857 7.95296 15.1875 6.3125V0.8125C15.1875 0.630164 15.1151 0.455295 14.9861 0.326364C14.8572 0.197433 14.6823 0.125 14.5 0.125C14.3177 0.125 14.1428 0.197433 14.0139 0.326364C13.8849 0.455295 13.8125 0.630164 13.8125 0.8125V6.3125C13.8125 7.58885 13.3055 8.81293 12.403 9.71545C11.5004 10.618 10.2764 11.125 9 11.125C7.72365 11.125 6.49957 10.618 5.59705 9.71545C4.69453 8.81293 4.1875 7.58885 4.1875 6.3125V0.8125C4.1875 0.630164 4.11507 0.455295 3.98614 0.326364C3.8572 0.197433 3.68234 0.125 3.5 0.125C3.31766 0.125 3.1428 0.197433 3.01386 0.326364C2.88493 0.455295 2.8125 0.630164 2.8125 0.8125V6.3125C2.81434 7.95296 3.46683 9.52571 4.62681 10.6857C5.78679 11.8457 7.35954 12.4982 9 12.5Z" fill="#424242"/>
</svg>
