<svg width="40" height="40" viewBox="0 0 40 40" fill="none" xmlns="http://www.w3.org/2000/svg">
<path d="M36.9198 19.6954C36.9198 19.6845 36.9198 19.6722 36.9116 19.6627L31.832 10.767L33.9087 9.72792C34.0685 9.64629 34.1896 9.50481 34.2455 9.33432C34.3014 9.16382 34.2877 8.97813 34.2073 8.81771C34.1269 8.65729 33.9864 8.53515 33.8163 8.4779C33.6463 8.42065 33.4605 8.43294 33.2994 8.51208L30.8052 9.7592L22.6166 7.71104C22.4937 7.24944 22.2492 6.82928 21.9085 6.49438C21.5679 6.15948 21.1436 5.92211 20.68 5.80704V3.68C20.68 3.49965 20.6084 3.32669 20.4808 3.19917C20.3533 3.07164 20.1803 3 20 3C19.8197 3 19.6467 3.07164 19.5192 3.19917C19.3916 3.32669 19.32 3.49965 19.32 3.68V5.81384C18.8542 5.92483 18.4274 6.16078 18.0857 6.49627C17.7439 6.83177 17.5002 7.25411 17.3806 7.71784L9.1472 9.77144L5.25488 8.47536C5.08604 8.42611 4.90468 8.4442 4.74889 8.52583C4.5931 8.60746 4.47499 8.74627 4.41938 8.91313C4.36376 9.07998 4.37495 9.26189 4.45061 9.42067C4.52626 9.57944 4.6605 9.70273 4.82512 9.76464L8.11768 10.8622L3.08568 19.6627C3.08568 19.6722 3.08568 19.6845 3.07752 19.694C3.02755 19.7883 3.00096 19.8933 3 20C3 21.6231 3.64478 23.1798 4.79251 24.3275C5.94023 25.4752 7.49688 26.12 9.12 26.12C10.7431 26.12 12.2998 25.4752 13.4475 24.3275C14.5952 23.1798 15.24 21.6231 15.24 20C15.2378 19.8929 15.2098 19.788 15.1584 19.694C15.1584 19.6845 15.1584 19.6722 15.1502 19.6627L10.155 10.922L17.3752 9.12C17.4975 9.58749 17.7422 10.014 18.084 10.3555C18.4258 10.6971 18.8524 10.9415 19.32 11.0634V30.2H18.64C17.8244 30.2035 17.0372 30.5 16.4221 31.0355C15.8069 31.5711 15.4048 32.3099 15.289 33.1172C14.8708 33.299 14.5147 33.5989 14.2644 33.9801C14.0142 34.3613 13.8806 34.8073 13.88 35.2633V36.32C13.88 36.5003 13.9516 36.6733 14.0792 36.8008C14.2067 36.9284 14.3797 37 14.56 37H25.44C25.6203 37 25.7933 36.9284 25.9208 36.8008C26.0484 36.6733 26.12 36.5003 26.12 36.32V35.2633C26.1194 34.8073 25.9858 34.3613 25.7356 33.9801C25.4853 33.5989 25.1292 33.299 24.711 33.1172C24.5952 32.3099 24.1931 31.5711 23.5779 31.0355C22.9628 30.5 22.1756 30.2035 21.36 30.2H20.68V11.0634C21.1476 10.9415 21.5742 10.6971 21.916 10.3555C22.2578 10.014 22.5025 9.58749 22.6248 9.12L29.8437 10.9274L24.8484 19.6695C24.8484 19.679 24.8484 19.6913 24.8402 19.7022C24.7903 19.7937 24.7628 19.8958 24.76 20C24.76 21.6231 25.4048 23.1798 26.5525 24.3275C27.7002 25.4752 29.2569 26.12 30.88 26.12C32.5031 26.12 34.0598 25.4752 35.2075 24.3275C36.3552 23.1798 37 21.6231 37 20C36.9983 19.8935 36.9707 19.7889 36.9198 19.6954ZM24.76 35.64H15.24V35.2633C15.24 35.0025 15.3436 34.7524 15.528 34.568C15.7124 34.3836 15.9625 34.28 16.2233 34.28H23.7767C24.0375 34.28 24.2876 34.3836 24.472 34.568C24.6564 34.7524 24.76 35.0025 24.76 35.2633V35.64ZM23.283 32.92H16.7156C16.8563 32.5221 17.1169 32.1776 17.4616 31.934C17.8062 31.6905 18.218 31.5598 18.64 31.56H21.36C21.7818 31.5601 22.1932 31.6909 22.5376 31.9344C22.882 32.178 23.1424 32.5223 23.283 32.92ZM35.149 19.32H26.611L30.88 11.8509L35.149 19.32ZM13.389 19.32H4.85232L9.12 11.8509L13.389 19.32ZM9.12 24.76C7.97884 24.7564 6.87711 24.3421 6.0163 23.5929C5.15549 22.8438 4.59314 21.8097 4.43208 20.68H13.8079C13.6469 21.8097 13.0845 22.8438 12.2237 23.5929C11.3629 24.3421 10.2612 24.7564 9.12 24.76ZM20 9.8C19.8123 9.79647 19.6272 9.75464 19.4563 9.67708C19.2853 9.59952 19.1319 9.48786 19.0056 9.34894C18.8793 9.21002 18.7827 9.04677 18.7217 8.86919C18.6607 8.69162 18.6366 8.50346 18.6509 8.31624C18.6768 7.9774 18.8306 7.66109 19.0811 7.4315C19.3317 7.20192 19.6602 7.07625 20 7.08C20.3485 7.07951 20.684 7.21286 20.9371 7.45252C21.1901 7.69218 21.3415 8.01986 21.36 8.36792V8.38696C21.3649 8.40512 21.3713 8.42286 21.379 8.44H21.36C21.36 8.80069 21.2167 9.14662 20.9617 9.40167C20.7066 9.65671 20.3607 9.8 20 9.8ZM30.88 24.76C29.7392 24.7547 28.6381 24.3399 27.7775 23.5911C26.9168 22.8422 26.3537 21.8092 26.1907 20.68H35.5747C35.4116 21.8101 34.8477 22.8439 33.9859 23.5928C33.1241 24.3418 32.0218 24.7561 30.88 24.76Z" fill="black"/>
</svg>
