<svg width="40" height="40" viewBox="0 0 40 40" fill="none" xmlns="http://www.w3.org/2000/svg">
<path d="M21.5155 21.1441C21.5788 21.2082 21.6543 21.259 21.7375 21.2934C21.8208 21.3278 21.9101 21.3452 22.0002 21.3446C22.0904 21.3447 22.1797 21.3271 22.2631 21.2927C22.3465 21.2583 22.4223 21.2078 22.4862 21.1441L30.1753 13.4551C31.2827 12.3458 31.9228 10.8543 31.964 9.28742C32.0052 7.72054 31.4442 6.19747 30.3966 5.0316C29.3489 3.86574 27.8942 3.14576 26.3319 3.01982C24.7695 2.89388 23.2183 3.37155 21.9974 4.35455C20.7758 3.38212 19.229 2.91279 17.673 3.04247C16.117 3.17214 14.6692 3.89102 13.6254 5.05224C12.5817 6.21347 12.0206 7.72942 12.057 9.29039C12.0933 10.8514 12.7243 12.3396 13.8209 13.451L21.5155 21.1441ZM14.7876 5.7578C15.6805 4.86703 16.8903 4.36678 18.1515 4.36678C19.4128 4.36678 20.6226 4.86703 21.5155 5.7578C21.6442 5.8865 21.8188 5.95881 22.0008 5.95881C22.1829 5.95881 22.3575 5.8865 22.4862 5.7578C23.3784 4.86563 24.5884 4.36441 25.8502 4.36441C27.1119 4.36441 28.3219 4.86563 29.2141 5.7578C30.1063 6.64998 30.6075 7.86003 30.6075 9.12175C30.6075 10.3835 30.1063 11.5935 29.2141 12.4857L22.007 19.6942L14.7986 12.4857C13.9062 11.5941 13.4042 10.3847 13.403 9.12318C13.4017 7.86169 13.9012 6.65128 14.7917 5.7578H14.7876Z" fill="black"/>
<path d="M34.337 23.9093C33.8808 23.6038 33.3441 23.4407 32.7951 23.4407C32.246 23.4407 31.7093 23.6038 31.2531 23.9093L26.7592 26.9053C26.7592 26.8875 26.7592 26.871 26.7592 26.8531C26.7584 26.1706 26.487 25.5162 26.0043 25.0335C25.5217 24.5509 24.8673 24.2794 24.1847 24.2787H18.753L18.1735 23.8434C16.853 22.8618 15.2243 22.3861 13.583 22.5028C11.9417 22.6194 10.3966 23.3206 9.22816 24.4791L8.35903 25.3497C8.12937 25.0729 7.80342 24.8934 7.44678 24.8473C7.09013 24.8012 6.72925 24.8919 6.43677 25.1011L4.59277 26.4385C4.28469 26.662 4.07794 26.9987 4.01795 27.3746C3.95797 27.7505 4.04965 28.1348 4.27285 28.4431L10.0396 36.4068C10.1496 36.5598 10.2889 36.6895 10.4494 36.7883C10.6099 36.887 10.7885 36.9529 10.9747 36.9821C11.0505 36.9941 11.1272 37.0001 11.204 36.9999C11.5056 36.9993 11.7993 36.9032 12.0429 36.7253L13.8883 35.3866C14.1908 35.1669 14.3945 34.8369 14.4553 34.468H25.2419C25.3773 34.4679 25.5096 34.4278 25.6223 34.3527L34.337 28.5379C34.7179 28.2838 35.0302 27.9397 35.2462 27.5359C35.4622 27.1322 35.5752 26.6815 35.5752 26.2236C35.5752 25.7657 35.4622 25.315 35.2462 24.9112C35.0302 24.5075 34.7179 24.1634 34.337 23.9093ZM11.1504 35.5939L5.39188 27.5493L7.23588 26.2106C7.24693 26.2034 7.2598 26.1996 7.27295 26.1996C7.28275 26.1992 7.29246 26.2015 7.30113 26.206C7.3098 26.2106 7.31713 26.2174 7.32238 26.2257L13.0809 34.2703L11.1504 35.5939ZM33.5722 27.3955L25.0319 33.0895H13.9981L9.19246 26.4604L10.1989 25.4444C11.1331 24.5185 12.3682 23.9582 13.6801 23.865C14.9921 23.7718 16.294 24.1519 17.3497 24.9364L18.1117 25.5089C18.2306 25.5981 18.3751 25.6462 18.5237 25.6462H24.1875C24.5061 25.6462 24.8117 25.7728 25.037 25.9981C25.2623 26.2234 25.3889 26.529 25.3889 26.8476C25.3889 27.1663 25.2623 27.4719 25.037 27.6972C24.8117 27.9225 24.5061 28.0491 24.1875 28.0491H17.6888C17.5068 28.0491 17.3322 28.1214 17.2034 28.2501C17.0747 28.3789 17.0023 28.5535 17.0023 28.7356C17.0023 28.9177 17.0747 29.0923 17.2034 29.221C17.3322 29.3498 17.5068 29.4221 17.6888 29.4221H25.2406C25.376 29.422 25.5083 29.3819 25.6209 29.3068L32.011 25.0503C32.2232 24.9093 32.4697 24.8284 32.7242 24.8163C32.9786 24.8043 33.2316 24.8614 33.4562 24.9817C33.6808 25.1021 33.8685 25.281 33.9995 25.4996C34.1304 25.7182 34.1996 25.9681 34.1997 26.2229C34.2016 26.4553 34.1451 26.6844 34.0355 26.8892C33.9259 27.0941 33.7666 27.2682 33.5722 27.3955Z" fill="black"/>
</svg>
