<svg width="40" height="40" viewBox="0 0 40 40" fill="none" xmlns="http://www.w3.org/2000/svg">
<path d="M36.0306 31.7049L28.1393 23.8136C29.9102 20.9802 30.5764 17.594 30.0108 14.3009C29.4452 11.0078 27.6874 8.03795 25.0726 5.95777C22.4577 3.87758 19.1687 2.83253 15.8327 3.02187C12.4967 3.21122 9.34711 4.62171 6.98441 6.98441C4.62171 9.34711 3.21122 12.4967 3.02187 15.8327C2.83253 19.1687 3.87758 22.4577 5.95777 25.0726C8.03795 27.6874 11.0077 29.4452 14.3009 30.0108C17.594 30.5764 20.9802 29.9103 23.8136 28.1393L31.7049 36.0306C31.9853 36.3303 32.3231 36.5705 32.6983 36.737C33.0735 36.9035 33.4783 36.9928 33.8887 36.9996C34.2991 37.0064 34.7067 36.9305 35.0871 36.7766C35.4676 36.6226 35.8132 36.3937 36.1034 36.1034C36.3936 35.8131 36.6224 35.4674 36.7762 35.0869C36.93 34.7063 37.0057 34.2987 36.9988 33.8883C36.9918 33.4779 36.9024 33.0731 36.7358 32.698C36.5692 32.3229 36.3288 31.9852 36.0289 31.7049H36.0306ZM4.71836 16.6583C4.71868 14.2966 5.41931 11.9879 6.73166 10.0244C8.04401 8.06081 9.90914 6.53048 12.0912 5.62689C14.2733 4.72331 16.6743 4.48706 18.9906 4.94801C21.3069 5.40896 23.4346 6.54641 25.1045 8.21653C26.7744 9.88666 27.9115 12.0144 28.3722 14.3308C28.8328 16.6472 28.5962 19.0482 27.6923 21.2301C26.7885 23.4121 25.2579 25.277 23.2941 26.5891C21.3304 27.9012 19.0217 28.6015 16.6599 28.6015C13.4936 28.5981 10.4579 27.3386 8.21916 25.0996C5.98037 22.8605 4.72134 19.8247 4.71836 16.6583ZM34.892 34.892C34.6165 35.1557 34.2499 35.3029 33.8685 35.3029C33.4872 35.3029 33.1205 35.1557 32.8451 34.892L25.1551 27.202C25.9085 26.5936 26.5952 25.9069 27.2036 25.1535L34.892 32.8435C35.1634 33.1152 35.3158 33.4836 35.3158 33.8677C35.3158 34.2518 35.1634 34.6202 34.892 34.892Z" fill="black"/>
<path d="M21.0581 13.0041L15.1864 18.8774L12.5355 16.225C12.3843 16.0738 12.1793 15.9889 11.9654 15.9889C11.7516 15.9889 11.5465 16.0738 11.3953 16.225C11.2441 16.3762 11.1592 16.5813 11.1592 16.7951C11.1592 17.0089 11.2441 17.214 11.3953 17.3652L14.6162 20.5861C14.691 20.6611 14.7799 20.7206 14.8777 20.7612C14.9756 20.8018 15.0804 20.8227 15.1864 20.8227C15.2923 20.8227 15.3971 20.8018 15.495 20.7612C15.5928 20.7206 15.6817 20.6611 15.7565 20.5861L22.1983 14.1443C22.3495 13.9931 22.4344 13.788 22.4344 13.5742C22.4344 13.3604 22.3495 13.1553 22.1983 13.0041C22.0471 12.8529 21.842 12.7679 21.6282 12.7679C21.4144 12.7679 21.2093 12.8529 21.0581 13.0041Z" fill="black"/>
</svg>
