<svg width="40" height="40" viewBox="0 0 40 40" fill="none" xmlns="http://www.w3.org/2000/svg">
<path d="M33.077 9.56198L20.1246 3.08578C20.012 3.02937 19.8878 3 19.7619 3C19.636 3 19.5118 3.02937 19.3993 3.08578L6.44686 9.56198C6.31256 9.62927 6.19964 9.73261 6.12072 9.86042C6.0418 9.98823 6.00001 10.1355 6 10.2857V19.5143C6.0055 21.7991 6.54017 24.0516 7.56209 26.0951C8.584 28.1387 10.0654 29.9178 11.8901 31.2929L19.2762 36.8381C19.4163 36.9432 19.5868 37 19.7619 37C19.9371 37 20.1075 36.9432 20.2476 36.8381L27.6337 31.2977C29.4591 29.9221 30.9409 28.1423 31.9628 26.0978C32.9848 24.0534 33.5191 21.7999 33.5238 19.5143V10.2857C33.5238 10.1355 33.482 9.98823 33.4031 9.86042C33.3242 9.73261 33.2113 9.62927 33.077 9.56198ZM31.9048 19.5143C31.9002 21.5479 31.4244 23.5528 30.5148 25.3717C29.6052 27.1906 28.2866 28.7739 26.6623 29.9976L19.7619 35.1786L12.8615 29.9976C11.2373 28.7739 9.9186 27.1906 9.00902 25.3717C8.09944 23.5528 7.62367 21.5479 7.61905 19.5143V10.786L19.7619 4.71455L31.9048 10.786V19.5143Z" fill="black"/>
<path d="M14.6684 18.8877C14.5932 18.8124 14.504 18.7527 14.4057 18.7119C14.3075 18.6711 14.2022 18.6501 14.0958 18.65C13.9895 18.65 13.8841 18.6708 13.7858 18.7115C13.6875 18.7521 13.5982 18.8117 13.5229 18.8869C13.4477 18.962 13.3879 19.0513 13.3472 19.1495C13.3064 19.2478 13.2854 19.3531 13.2853 19.4594C13.2852 19.5658 13.3061 19.6712 13.3467 19.7695C13.3874 19.8678 13.4469 19.9571 13.5221 20.0324L17.301 23.8112C17.4528 23.963 17.6586 24.0482 17.8733 24.0482C18.088 24.0482 18.2938 23.963 18.4456 23.8112L26.0017 16.2551C26.1535 16.1031 26.2387 15.897 26.2386 15.6822C26.2384 15.4674 26.1529 15.2614 26.0009 15.1096C25.9257 15.0345 25.8363 14.9749 25.738 14.9342C25.6397 14.8936 25.5344 14.8727 25.428 14.8728C25.2132 14.873 25.0072 14.9584 24.8555 15.1104L17.8725 22.0934L14.6684 18.8877Z" fill="black"/>
</svg>
