<svg width="28" height="20" viewBox="0 0 28 20" fill="none" xmlns="http://www.w3.org/2000/svg">
<path d="M27.3334 18.0066C27.3334 18.74 26.7387 19.3333 26.0067 19.3333H15.3267C14.9748 19.3333 14.6374 19.1935 14.3886 18.9447C14.1398 18.6959 14 18.3585 14 18.0066C14 17.6548 14.1398 17.3173 14.3886 17.0685C14.6374 16.8197 14.9748 16.68 15.3267 16.68H26.0067C26.74 16.68 27.3334 17.2733 27.3334 18.0066ZM27.3334 9.99996C27.3334 10.7333 26.7387 11.3266 26.0067 11.3266H1.99335C1.6415 11.3266 1.30406 11.1869 1.05526 10.9381C0.80646 10.6893 0.666687 10.3518 0.666687 9.99996C0.666687 9.64811 0.80646 9.31066 1.05526 9.06186C1.30406 8.81307 1.6415 8.67329 1.99335 8.67329H26.0067C26.74 8.67329 27.3334 9.26796 27.3334 9.99996ZM26.0067 3.31996C26.3585 3.31996 26.696 3.18019 26.9448 2.93139C27.1936 2.68259 27.3334 2.34515 27.3334 1.99329C27.3334 1.64144 27.1936 1.304 26.9448 1.0552C26.696 0.806399 26.3585 0.666626 26.0067 0.666626H9.99335C9.81913 0.666626 9.64662 0.700941 9.48566 0.767612C9.3247 0.834284 9.17845 0.932005 9.05526 1.0552C8.93207 1.17839 8.83434 1.32464 8.76767 1.4856C8.701 1.64656 8.66669 1.81907 8.66669 1.99329C8.66669 2.16751 8.701 2.34003 8.76767 2.50099C8.83434 2.66194 8.93207 2.8082 9.05526 2.93139C9.17845 3.05458 9.3247 3.1523 9.48566 3.21897C9.64662 3.28564 9.81913 3.31996 9.99335 3.31996H26.0067Z" fill="black"/>
</svg>
