<svg xmlns="http://www.w3.org/2000/svg" xmlns:xlink="http://www.w3.org/1999/xlink" width="32" height="32" viewBox="0 0 32 32">
  <defs>
    <clipPath id="clip-path">
      <rect id="Rectangle_4154" data-name="Rectangle 4154" width="32" height="32" transform="translate(2280 4367)" fill="#fff" stroke="#707070" stroke-width="1"/>
    </clipPath>
  </defs>
  <g id="Mask_Group_10" data-name="Mask Group 10" transform="translate(-2280 -4367)" clip-path="url(#clip-path)">
    <g id="XMLID_455_" transform="translate(2278 4365)">
      <path id="XMLID_456_" d="M31.9,31.031,23.742,18.482a.628.628,0,0,0-1.051,0l-4.177,6.389-5.964-8.133V11.922H18.2v.523a1.989,1.989,0,0,0,1.987,1.987h6.17a.628.628,0,0,0,.522-.975L24.6,10.039l2.278-3.417a.628.628,0,0,0-.522-.975H21.961V4.5A1.989,1.989,0,0,0,19.974,2.51H13.7a1.882,1.882,0,1,0-2.4,1.147V16.725L.133,30.986A.627.627,0,0,0,.627,32H31.373a.627.627,0,0,0,.526-.969ZM23.214,19.973l2.428,3.735c-2.515.429-3.162,1.534-5.983,1.7ZM11.905,17.98l2.087,2.846c-2.782.425-3.624,1.84-6.085,2.262Zm8.8-9.823H12.549V6.275h8.157ZM12.549,9.412h8.157v.523a.733.733,0,0,1-.732.732H12.549ZM25.181,6.9,23.321,9.691a.627.627,0,0,0,0,.7l1.859,2.789h-5a.733.733,0,0,1-.732-.732v-.523h.523a1.989,1.989,0,0,0,1.987-1.987V6.9ZM20.706,4.5V5.02H12.549V3.765h7.425A.733.733,0,0,1,20.706,4.5ZM11.922,1.255a.627.627,0,1,1-.627.627A.628.628,0,0,1,11.922,1.255Zm2.75,29.49H1.915l4.92-6.287c4.046-.175,4.529-2.2,8.012-2.467l2.933,4Zm1.5,0,2.655-4.061c.02,0,.04,0,.06,0,4.039,0,4.543-1.5,7.511-1.818l3.819,5.876Z" transform="translate(2 2)" fill="#242424"/>
    </g>
  </g>
</svg>
