<svg xmlns="http://www.w3.org/2000/svg" xmlns:xlink="http://www.w3.org/1999/xlink" width="32" height="32" viewBox="0 0 32 32">
  <defs>
    <clipPath id="clip-path">
      <rect id="Rectangle_4159" data-name="Rectangle 4159" width="32" height="32" transform="translate(2260 4438)" fill="#fff" stroke="#707070" stroke-width="1"/>
    </clipPath>
  </defs>
  <g id="Mask_Group_14" data-name="Mask Group 14" transform="translate(-2260 -4438)" clip-path="url(#clip-path)">
    <g id="best-employee" transform="translate(2260 4438)">
      <path id="Path_240917" data-name="Path 240917" d="M27.683,21.892a3.476,3.476,0,1,0-4.541,0,6.51,6.51,0,0,0-1.248.618,7.835,7.835,0,0,0-3.4-2.259,4.077,4.077,0,1,0-4.981,0,7.836,7.836,0,0,0-3.4,2.259,6.51,6.51,0,0,0-1.248-.618,3.476,3.476,0,1,0-4.541,0A6.6,6.6,0,0,0,0,28.075V29.89a.625.625,0,0,0,.625.625h30.75A.625.625,0,0,0,32,29.89V28.075a6.6,6.6,0,0,0-4.317-6.184Zm-2.27-4.856a2.226,2.226,0,1,1-2.226,2.226A2.229,2.229,0,0,1,25.413,17.036ZM22.592,27.664v1.6H20.7V28.237a.625.625,0,0,0-1.25,0v1.027h-2.12l.715-.858a.625.625,0,0,0,.14-.478l-.609-4.872.579-1.6a6.575,6.575,0,0,1,4.433,6.208Zm-5.657-6.5-.433,1.2h-1l-.43-1.2a6.953,6.953,0,0,1,1.867,0Zm-.02,6.651L16,28.913l-.915-1.1.525-4.2h.779ZM16,14.2a2.826,2.826,0,1,1-2.827,2.826A2.83,2.83,0,0,1,16,14.2ZM6.587,17.036A2.226,2.226,0,1,1,4.36,19.262,2.229,2.229,0,0,1,6.587,17.036ZM1.25,28.075a5.343,5.343,0,0,1,5.337-5.337,5.278,5.278,0,0,1,2.769.774,7.765,7.765,0,0,0-1.2,4.151v1.6H4.388V28.237a.625.625,0,0,0-1.25,0v1.027H1.25Zm8.158-.412a6.575,6.575,0,0,1,4.436-6.209l.576,1.6-.609,4.872a.625.625,0,0,0,.14.478l.715.858h-2.12V28.237a.625.625,0,0,0-1.25,0v1.027H9.408Zm21.342,1.6H28.862V28.237a.625.625,0,0,0-1.25,0v1.027h-3.77v-1.6a7.766,7.766,0,0,0-1.2-4.151,5.278,5.278,0,0,1,2.769-.774,5.343,5.343,0,0,1,5.337,5.337v1.189Z" fill="#242424"/>
      <path id="Path_240918" data-name="Path 240918" d="M12.975,8.042l-.5,2.915a.625.625,0,0,0,.907.659L16,10.24l2.618,1.376a.625.625,0,0,0,.907-.659l-.5-2.915,2.118-2.064A.625.625,0,0,0,20.8,4.911L17.87,4.486,16.561,1.834a.625.625,0,0,0-1.121,0L14.131,4.486,11.2,4.911a.625.625,0,0,0-.346,1.066Zm1.66-2.366a.625.625,0,0,0,.471-.342L16,3.523l.894,1.811a.625.625,0,0,0,.471.342l2,.29-1.446,1.41a.625.625,0,0,0-.18.553l.341,1.991-1.788-.94a.625.625,0,0,0-.582,0l-1.788.94.342-1.991a.625.625,0,0,0-.18-.553l-1.446-1.41Z" fill="#242424"/>
    </g>
  </g>
</svg>
