<svg width="34" height="34" viewBox="0 0 34 34" fill="none" xmlns="http://www.w3.org/2000/svg">
<path d="M30.5469 17C30.5469 14.3208 29.7525 11.7018 28.2641 9.47412C26.7757 7.24643 24.6601 5.51009 22.185 4.48466C19.7098 3.45922 16.9862 3.19075 14.3584 3.71318C11.7307 4.23561 9.31684 5.52548 7.42214 7.4197C5.52744 9.31392 4.23695 11.7274 3.71385 14.355C3.19075 16.9826 3.45853 19.7064 4.48333 22.1818C5.50814 24.6572 7.24394 26.7732 9.47125 28.2621C11.6986 29.7511 14.3174 30.5462 16.9966 30.5469H17L17.0035 30.5467C20.5945 30.5418 24.0369 29.1129 26.5758 26.5733C29.1147 24.0338 30.5428 20.591 30.5469 17ZM17.7969 28.9259V19.922H21.25C21.4614 19.922 21.664 19.8381 21.8135 19.6886C21.9629 19.5392 22.0469 19.3365 22.0469 19.1251C22.0469 18.9138 21.9629 18.7111 21.8135 18.5617C21.664 18.4122 21.4614 18.3283 21.25 18.3283H17.7969V14.8751C17.7976 14.2413 18.0497 13.6337 18.4979 13.1855C18.946 12.7373 19.5537 12.4852 20.1875 12.4845H22.3125C22.5239 12.4845 22.7265 12.4006 22.876 12.2511C23.0254 12.1017 23.1094 11.899 23.1094 11.6876C23.1094 11.4763 23.0254 11.2736 22.876 11.1242C22.7265 10.9747 22.5239 10.8908 22.3125 10.8908H20.1875C19.1312 10.892 18.1184 11.3121 17.3714 12.0591C16.6245 12.806 16.2043 13.8188 16.2031 14.8751V18.3283H12.75C12.5387 18.3283 12.336 18.4122 12.1865 18.5617C12.0371 18.7111 11.9531 18.9138 11.9531 19.1251C11.9531 19.3365 12.0371 19.5392 12.1865 19.6886C12.336 19.8381 12.5387 19.922 12.75 19.922H16.2031V28.9259C13.1089 28.7192 10.2161 27.318 8.1357 25.0182C6.05529 22.7184 4.9501 19.7001 5.05353 16.6007C5.15696 13.5013 6.46091 10.5634 8.69001 8.40744C10.9191 6.25149 13.8989 5.04625 17 5.04625C20.1011 5.04625 23.0809 6.25149 25.31 8.40744C27.5391 10.5634 28.8431 13.5013 28.9465 16.6007C29.0499 19.7001 27.9447 22.7184 25.8643 25.0182C23.7839 27.318 20.8911 28.7192 17.7969 28.9259Z" fill="#1EA6FB"/>
</svg>
