<svg width="20" height="20" viewBox="0 0 20 20" fill="current" xmlns="http://www.w3.org/2000/svg">
<path d="M17.9688 10C17.9688 8.42402 17.5014 6.88342 16.6259 5.57301C15.7504 4.2626 14.506 3.24123 13.05 2.63803C11.594 2.03484 9.99186 1.87691 8.44613 2.18422C6.90039 2.49153 5.48049 3.25028 4.36596 4.36453C3.25143 5.47877 2.49232 6.89848 2.18462 8.44413C1.87691 9.98979 2.03443 11.592 2.63726 13.0481C3.24008 14.5042 4.26114 15.7489 5.57133 16.6248C6.88151 17.5007 8.42199 17.9684 9.99797 17.9688H10L10.002 17.9687C12.1144 17.9658 14.1394 17.1252 15.6328 15.6314C17.1263 14.1375 17.9664 12.1124 17.9688 10ZM10.4688 17.0152V11.7188H12.5C12.6243 11.7188 12.7436 11.6694 12.8315 11.5815C12.9194 11.4936 12.9688 11.3744 12.9688 11.2501C12.9688 11.1258 12.9194 11.0065 12.8315 10.9186C12.7436 10.8307 12.6243 10.7813 12.5 10.7813H10.4688V8.75008C10.4692 8.37725 10.6175 8.0198 10.8811 7.75617C11.1447 7.49254 11.5022 7.34425 11.875 7.34383H13.125C13.2493 7.34383 13.3686 7.29445 13.4565 7.20654C13.5444 7.11863 13.5938 6.9994 13.5938 6.87508C13.5938 6.75076 13.5444 6.63153 13.4565 6.54363C13.3686 6.45572 13.2493 6.40633 13.125 6.40633H11.875C11.2536 6.40703 10.6579 6.65419 10.2185 7.09358C9.77911 7.53296 9.53196 8.1287 9.53125 8.75008V10.7813H7.5C7.37568 10.7813 7.25646 10.8307 7.16855 10.9186C7.08064 11.0065 7.03125 11.1258 7.03125 11.2501C7.03125 11.3744 7.08064 11.4936 7.16855 11.5815C7.25646 11.6694 7.37568 11.7188 7.5 11.7188H9.53125V17.0152C7.71111 16.8936 6.00948 16.0694 4.78571 14.7166C3.56194 13.3638 2.91182 11.5883 2.97267 9.76512C3.03351 7.94194 3.80054 6.21377 5.11177 4.94556C6.42301 3.67734 8.17581 2.96838 10 2.96838C11.8242 2.96838 13.577 3.67734 14.8882 4.94556C16.1995 6.21377 16.9665 7.94194 17.0273 9.76512C17.0882 11.5883 16.4381 13.3638 15.2143 14.7166C13.9905 16.0694 12.2889 16.8936 10.4688 17.0152Z" fill="#C7C7C7"/>
</svg>
