<svg width="20" height="20" viewBox="0 0 20 20" fill="none" xmlns="http://www.w3.org/2000/svg">
<path d="M7.34375 8.75008V13.7501C7.34375 13.8744 7.29436 13.9936 7.20646 14.0815C7.11855 14.1694 6.99932 14.2188 6.875 14.2188C6.75068 14.2188 6.63145 14.1694 6.54354 14.0815C6.45564 13.9936 6.40625 13.8744 6.40625 13.7501V8.75008C6.40625 8.62576 6.45564 8.50653 6.54354 8.41862C6.63145 8.33071 6.75068 8.28133 6.875 8.28133C6.99932 8.28133 7.11855 8.33071 7.20646 8.41862C7.29436 8.50653 7.34375 8.62576 7.34375 8.75008ZM6.875 5.46875C6.72048 5.46875 6.56944 5.51457 6.44096 5.60041C6.31248 5.68626 6.21235 5.80827 6.15322 5.95103C6.09409 6.09378 6.07862 6.25087 6.10876 6.40241C6.13891 6.55396 6.21331 6.69317 6.32257 6.80243C6.43183 6.91169 6.57104 6.98609 6.72259 7.01624C6.87413 7.04638 7.03122 7.03091 7.17397 6.97178C7.31673 6.91265 7.43874 6.81252 7.52459 6.68404C7.61043 6.55556 7.65625 6.40452 7.65625 6.25C7.65625 6.0428 7.57394 5.84409 7.42743 5.69757C7.28091 5.55106 7.0822 5.46875 6.875 5.46875ZM17.6562 3.4375V16.5625C17.6559 16.8525 17.5406 17.1305 17.3355 17.3355C17.1305 17.5406 16.8525 17.6559 16.5625 17.6562H3.4375C3.14752 17.6559 2.86951 17.5406 2.66447 17.3355C2.45942 17.1305 2.34408 16.8525 2.34375 16.5625V3.4375C2.34408 3.14752 2.45942 2.86951 2.66447 2.66447C2.86951 2.45942 3.14752 2.34408 3.4375 2.34375H16.5625C16.8525 2.34408 17.1305 2.45942 17.3355 2.66447C17.5406 2.86951 17.6559 3.14752 17.6562 3.4375ZM16.7188 3.4375C16.7187 3.39607 16.7022 3.35635 16.6729 3.32706C16.6436 3.29777 16.6039 3.28129 16.5625 3.28125H3.4375C3.39607 3.28129 3.35635 3.29777 3.32706 3.32706C3.29777 3.35635 3.28129 3.39607 3.28125 3.4375V16.5625C3.28129 16.6039 3.29777 16.6436 3.32706 16.6729C3.35635 16.7022 3.39607 16.7187 3.4375 16.7188H16.5625C16.6039 16.7187 16.6436 16.7022 16.6729 16.6729C16.7022 16.6436 16.7187 16.6039 16.7188 16.5625V3.4375ZM11.5625 8.28133C10.9324 8.28091 10.3229 8.50552 9.84375 8.91469V8.75008C9.84375 8.62576 9.79436 8.50653 9.70646 8.41862C9.61855 8.33071 9.49932 8.28133 9.375 8.28133C9.25068 8.28133 9.13145 8.33071 9.04354 8.41862C8.95564 8.50653 8.90625 8.62576 8.90625 8.75008V13.7501C8.90625 13.8744 8.95564 13.9936 9.04354 14.0815C9.13145 14.1694 9.25068 14.2188 9.375 14.2188C9.49932 14.2188 9.61855 14.1694 9.70646 14.0815C9.79436 13.9936 9.84375 13.8744 9.84375 13.7501V10.9376C9.84375 10.4817 10.0248 10.0446 10.3472 9.72224C10.6695 9.39991 11.1067 9.21883 11.5625 9.21883C12.0183 9.21883 12.4555 9.39991 12.7778 9.72224C13.1002 10.0446 13.2812 10.4817 13.2812 10.9376V13.7501C13.2812 13.8744 13.3306 13.9936 13.4185 14.0815C13.5065 14.1694 13.6257 14.2188 13.75 14.2188C13.8743 14.2188 13.9935 14.1694 14.0815 14.0815C14.1694 13.9936 14.2188 13.8744 14.2188 13.7501V10.9376C14.2179 10.2333 13.9378 9.55819 13.4399 9.06022C12.9419 8.56225 12.2667 8.28213 11.5625 8.28133Z" fill="#C7C7C7"/>
</svg>
