<svg width="34" height="34" viewBox="0 0 34 34" fill="none" xmlns="http://www.w3.org/2000/svg">
<path d="M12.4844 14.8751V23.3751C12.4844 23.5865 12.4004 23.7892 12.251 23.9386C12.1015 24.0881 11.8988 24.172 11.6875 24.172C11.4762 24.172 11.2735 24.0881 11.124 23.9386C10.9746 23.7892 10.8906 23.5865 10.8906 23.3751V14.8751C10.8906 14.6638 10.9746 14.4611 11.124 14.3117C11.2735 14.1622 11.4762 14.0783 11.6875 14.0783C11.8988 14.0783 12.1015 14.1622 12.251 14.3117C12.4004 14.4611 12.4844 14.6638 12.4844 14.8751ZM11.6875 9.29688C11.4248 9.29688 11.168 9.37477 10.9496 9.5207C10.7312 9.66664 10.561 9.87407 10.4605 10.1167C10.36 10.3594 10.3336 10.6265 10.3849 10.8841C10.4361 11.1417 10.5626 11.3784 10.7484 11.5641C10.9341 11.7499 11.1708 11.8764 11.4284 11.9276C11.686 11.9789 11.9531 11.9525 12.1958 11.852C12.4384 11.7515 12.6459 11.5813 12.7918 11.3629C12.9377 11.1445 13.0156 10.8877 13.0156 10.625C13.0156 10.2728 12.8757 9.93495 12.6266 9.68587C12.3776 9.4368 12.0397 9.29688 11.6875 9.29688ZM30.0156 5.84375V28.1562C30.0151 28.6492 29.819 29.1218 29.4704 29.4704C29.1218 29.819 28.6492 30.0151 28.1562 30.0156H5.84375C5.35079 30.0151 4.87817 29.819 4.52959 29.4704C4.18102 29.1218 3.98494 28.6492 3.98438 28.1562V5.84375C3.98494 5.35079 4.18102 4.87817 4.52959 4.52959C4.87817 4.18102 5.35079 3.98494 5.84375 3.98438H28.1562C28.6492 3.98494 29.1218 4.18102 29.4704 4.52959C29.819 4.87817 30.0151 5.35079 30.0156 5.84375ZM28.4219 5.84375C28.4218 5.77332 28.3938 5.7058 28.344 5.656C28.2942 5.6062 28.2267 5.5782 28.1562 5.57812H5.84375C5.77332 5.5782 5.7058 5.6062 5.656 5.656C5.6062 5.7058 5.5782 5.77332 5.57812 5.84375V28.1562C5.5782 28.2267 5.6062 28.2942 5.656 28.344C5.7058 28.3938 5.77332 28.4218 5.84375 28.4219H28.1562C28.2267 28.4218 28.2942 28.3938 28.344 28.344C28.3938 28.2942 28.4218 28.2267 28.4219 28.1562V5.84375ZM19.6562 14.0783C18.5851 14.0775 17.5489 14.4594 16.7344 15.155V14.8751C16.7344 14.6638 16.6504 14.4611 16.501 14.3117C16.3515 14.1622 16.1488 14.0783 15.9375 14.0783C15.7262 14.0783 15.5235 14.1622 15.374 14.3117C15.2246 14.4611 15.1406 14.6638 15.1406 14.8751V23.3751C15.1406 23.5865 15.2246 23.7892 15.374 23.9386C15.5235 24.0881 15.7262 24.172 15.9375 24.172C16.1488 24.172 16.3515 24.0881 16.501 23.9386C16.6504 23.7892 16.7344 23.5865 16.7344 23.3751V18.5939C16.7344 17.819 17.0422 17.0758 17.5902 16.5278C18.1381 15.9798 18.8813 15.672 19.6562 15.672C20.4312 15.672 21.1744 15.9798 21.7223 16.5278C22.2703 17.0758 22.5781 17.819 22.5781 18.5939V23.3751C22.5781 23.5865 22.6621 23.7892 22.8115 23.9386C22.961 24.0881 23.1637 24.172 23.375 24.172C23.5863 24.172 23.789 24.0881 23.9385 23.9386C24.0879 23.7892 24.1719 23.5865 24.1719 23.3751V18.5939C24.1705 17.3967 23.6943 16.2489 22.8478 15.4024C22.0012 14.5558 20.8534 14.0796 19.6562 14.0783Z" fill="#1EA6FB"/>
</svg>
