<svg width="22" height="22" viewBox="0 0 22 22" fill="none" xmlns="http://www.w3.org/2000/svg">
<path d="M20.1963 0.0625H1.82129C1.35732 0.0630211 0.912504 0.247563 0.584428 0.575639C0.256352 0.903715 0.0718101 1.34853 0.0712891 1.8125V20.1875C0.0718101 20.6515 0.256352 21.0963 0.584428 21.4244C0.912504 21.7524 1.35732 21.937 1.82129 21.9375H20.1963C20.6603 21.937 21.1051 21.7524 21.4331 21.4244C21.7612 21.0963 21.9458 20.6515 21.9463 20.1875V1.8125C21.9458 1.34853 21.7612 0.903715 21.4331 0.575639C21.1051 0.247563 20.6603 0.0630211 20.1963 0.0625ZM7.50879 16.2501C7.50879 16.4822 7.4166 16.7047 7.25251 16.8688C7.08841 17.0329 6.86585 17.1251 6.63379 17.1251C6.40172 17.1251 6.17916 17.0329 6.01507 16.8688C5.85098 16.7047 5.75879 16.4822 5.75879 16.2501V9.25011C5.75879 9.01804 5.85098 8.79549 6.01507 8.63139C6.17916 8.4673 6.40172 8.37511 6.63379 8.37511C6.86585 8.37511 7.08841 8.4673 7.25251 8.63139C7.4166 8.79549 7.50879 9.01804 7.50879 9.25011V16.2501ZM6.63379 7.0625C6.3742 7.0625 6.12044 6.98552 5.9046 6.8413C5.68876 6.69708 5.52054 6.4921 5.4212 6.25227C5.32186 6.01244 5.29587 5.74854 5.34651 5.49394C5.39715 5.23934 5.52215 5.00548 5.70571 4.82192C5.88927 4.63837 6.12313 4.51336 6.37773 4.46272C6.63233 4.41208 6.89623 4.43807 7.13606 4.53741C7.37589 4.63675 7.58087 4.80498 7.72509 5.02081C7.86931 5.23665 7.94629 5.49041 7.94629 5.75C7.94629 6.0981 7.80801 6.43194 7.56187 6.67808C7.31573 6.92422 6.98189 7.0625 6.63379 7.0625ZM17.1338 16.2501C17.1338 16.4822 17.0416 16.7047 16.8775 16.8688C16.7134 17.0329 16.4909 17.1251 16.2588 17.1251C16.0267 17.1251 15.8042 17.0329 15.6401 16.8688C15.476 16.7047 15.3838 16.4822 15.3838 16.2501V12.3126C15.3838 11.7324 15.1533 11.176 14.7431 10.7658C14.3328 10.3556 13.7765 10.1251 13.1963 10.1251C12.6161 10.1251 12.0597 10.3556 11.6495 10.7658C11.2393 11.176 11.0088 11.7324 11.0088 12.3126V16.2501C11.0088 16.4822 10.9166 16.7047 10.7525 16.8688C10.5884 17.0329 10.3659 17.1251 10.1338 17.1251C9.90172 17.1251 9.67916 17.0329 9.51507 16.8688C9.35098 16.7047 9.25879 16.4822 9.25879 16.2501V9.25011C9.25863 9.03497 9.33776 8.82731 9.48106 8.66684C9.62436 8.50637 9.82178 8.40434 10.0356 8.38027C10.2494 8.35619 10.4645 8.41175 10.6399 8.53632C10.8153 8.66089 10.9387 8.84574 10.9864 9.05553C11.5781 8.65339 12.2683 8.42017 12.9827 8.38096C13.6971 8.34175 14.4086 8.49803 15.0408 8.83299C15.673 9.16795 16.202 9.66892 16.5707 10.282C16.9395 10.8951 17.1342 11.5971 17.1338 12.3126V16.2501Z" fill="#414141"/>
</svg>
