<svg width="22" height="22" viewBox="0 0 22 22" fill="none" xmlns="http://www.w3.org/2000/svg">
<path d="M21.6458 6.05028C21.6479 6.79748 21.5017 7.53767 21.2158 8.228C20.9298 8.91833 20.5098 9.54509 19.98 10.072L16.8867 13.1657C15.8192 14.2306 14.3729 14.8287 12.865 14.8287C11.3571 14.8287 9.91078 14.2306 8.84327 13.1657C8.67915 13.0016 8.58695 12.779 8.58694 12.5469C8.58693 12.3148 8.67911 12.0923 8.84321 11.9282C9.00731 11.764 9.22988 11.6718 9.46196 11.6718C9.69404 11.6718 9.91662 11.764 10.0807 11.9281C10.8197 12.6655 11.821 13.0796 12.865 13.0796C13.9089 13.0796 14.9102 12.6655 15.6492 11.9281L18.7426 8.83442C19.4711 8.09397 19.8775 7.09565 19.8732 6.05692C19.869 5.0182 19.4545 4.02322 18.72 3.28873C17.9855 2.55423 16.9905 2.13972 15.9518 2.13549C14.9131 2.13126 13.9148 2.53765 13.1743 3.26614L11.0087 5.43166C10.9274 5.51291 10.8309 5.57736 10.7248 5.62134C10.6186 5.66531 10.5048 5.68794 10.3899 5.68793C10.275 5.68793 10.1612 5.66529 10.055 5.62131C9.94887 5.57733 9.8524 5.51287 9.77115 5.4316C9.6899 5.35034 9.62544 5.25388 9.58147 5.14771C9.5375 5.04154 9.51487 4.92775 9.51488 4.81283C9.51488 4.69792 9.53752 4.58413 9.5815 4.47796C9.62548 4.3718 9.68994 4.27533 9.7712 4.19408L11.9367 2.02867C12.7321 1.23324 13.7456 0.691546 14.8488 0.472085C15.9521 0.252623 17.0957 0.365255 18.135 0.795736C19.1742 1.22622 20.0625 1.95521 20.6875 2.89054C21.3124 3.82586 21.646 4.9255 21.6459 6.05039L21.6458 6.05028ZM11.0087 16.5684L8.84305 18.734C8.47851 19.1045 8.04423 19.3992 7.56524 19.601C7.08625 19.8028 6.57204 19.9078 6.05227 19.91C5.53249 19.9121 5.01744 19.8113 4.53683 19.6133C4.05621 19.4154 3.61954 19.1243 3.252 18.7567C2.88446 18.3892 2.59333 17.9525 2.3954 17.4719C2.19746 16.9913 2.09665 16.4762 2.09877 15.9565C2.10088 15.4367 2.20589 14.9225 2.40773 14.4435C2.60957 13.9645 2.90425 13.5302 3.27477 13.1657L6.36822 10.072C7.10718 9.33459 8.10851 8.92044 9.15247 8.92044C10.1964 8.92044 11.1978 9.33459 11.9367 10.072C12.018 10.1533 12.1144 10.2177 12.2206 10.2617C12.3268 10.3057 12.4406 10.3283 12.5555 10.3283C12.6704 10.3283 12.7842 10.3056 12.8904 10.2617C12.9965 10.2177 13.093 10.1532 13.1742 10.0719C13.2555 9.99069 13.3199 9.89422 13.3639 9.78805C13.4079 9.68188 13.4305 9.56809 13.4305 9.45318C13.4305 9.33826 13.4079 9.22447 13.3639 9.11831C13.3199 9.01214 13.2554 8.91568 13.1742 8.83442C12.1067 7.76947 10.6604 7.17139 9.15247 7.17139C7.64459 7.17139 6.19826 7.76947 5.13075 8.83442L2.03719 11.9281C0.970562 12.9947 0.371338 14.4414 0.371338 15.9498C0.371338 17.4583 0.970562 18.9049 2.03719 19.9715C3.10381 21.0382 4.55047 21.6374 6.05891 21.6374C7.56734 21.6374 9.014 21.0382 10.0806 19.9715L12.2461 17.8059C12.4086 17.6415 12.4994 17.4194 12.4986 17.1883C12.4979 16.9571 12.4058 16.7357 12.2423 16.5722C12.0789 16.4088 11.8574 16.3167 11.6263 16.316C11.3951 16.3153 11.1731 16.4061 11.0087 16.5686V16.5684Z" fill="#414141"/>
</svg>
