<svg width="20" height="20" viewBox="0 0 20 20" fill="blue" xmlns="http://www.w3.org/2000/svg">
<path d="M10 5.15625C9.41284 5.15625 8.83886 5.33036 8.35065 5.65657C7.86244 5.98278 7.48193 6.44644 7.25723 6.98891C7.03254 7.53138 6.97374 8.12829 7.08829 8.70417C7.20284 9.28006 7.48559 9.80904 7.90078 10.2242C8.31596 10.6394 8.84494 10.9222 9.42083 11.0367C9.99671 11.1513 10.5936 11.0925 11.1361 10.8678C11.6786 10.6431 12.1422 10.2626 12.4684 9.77435C12.7946 9.28614 12.9688 8.71216 12.9688 8.125C12.9679 7.33791 12.6548 6.58331 12.0982 6.02676C11.5417 5.4702 10.7871 5.15714 10 5.15625ZM10 10.1562C9.59826 10.1562 9.20554 10.0371 8.8715 9.81392C8.53746 9.59073 8.27711 9.27349 8.12337 8.90233C7.96963 8.53116 7.9294 8.12275 8.00778 7.72872C8.08616 7.3347 8.27961 6.97276 8.56369 6.68869C8.84776 6.40461 9.2097 6.21116 9.60372 6.13278C9.99775 6.0544 10.4062 6.09463 10.7773 6.24837C11.1485 6.40211 11.4657 6.66246 11.6889 6.9965C11.9121 7.33054 12.0312 7.72326 12.0312 8.125C12.0306 8.66353 11.8164 9.17983 11.4356 9.56063C11.0548 9.94142 10.5385 10.1556 10 10.1562ZM10 1.40625C8.21869 1.40826 6.51092 2.11677 5.25134 3.37634C3.99177 4.63592 3.28326 6.34369 3.28125 8.125C3.28125 10.5396 4.40156 13.1044 6.52125 15.542C7.47789 16.6469 8.55449 17.6421 9.73117 18.509C9.80994 18.5642 9.90379 18.5938 9.99996 18.5938C10.0961 18.5938 10.19 18.5642 10.2688 18.509C11.4454 17.6421 12.522 16.6469 13.4787 15.542C15.5984 13.1044 16.7188 10.5396 16.7188 8.125C16.7167 6.34369 16.0082 4.63592 14.7487 3.37634C13.4891 2.11677 11.7813 1.40826 10 1.40625ZM10 17.54C8.82633 16.6348 4.21875 12.7831 4.21875 8.125C4.21875 6.59172 4.82784 5.12123 5.91204 4.03704C6.99623 2.95284 8.46672 2.34375 10 2.34375C11.5333 2.34375 13.0038 2.95284 14.088 4.03704C15.1722 5.12123 15.7812 6.59172 15.7812 8.125C15.7812 12.7831 11.1734 16.6349 10 17.54Z" fill="#C7C7C7"/>
</svg>
