<svg width="140" height="28" viewBox="0 0 140 28" fill="none" xmlns="http://www.w3.org/2000/svg">
<g clip-path="url(#clip0_260_82)">
<path d="M42.674 8.50425C42.6756 8.26554 42.6315 8.02902 42.5444 7.80932C42.4574 7.58962 42.3292 7.3914 42.1678 7.22695C42.0146 7.05774 41.8312 6.92343 41.6284 6.83206C41.4257 6.74068 41.2078 6.69413 40.9879 6.69518C40.9151 6.69563 40.8425 6.70106 40.7704 6.71141H37.7468C37.5293 6.70839 37.3135 6.75413 37.1134 6.8457C36.9133 6.93727 36.7333 7.07266 36.5848 7.24318C36.4299 7.40808 36.3074 7.60467 36.2246 7.8213C36.1419 8.03793 36.1006 8.27017 36.1031 8.50425C36.0986 8.74319 36.1389 8.98067 36.2216 9.20258C36.3044 9.42449 36.4279 9.62629 36.5848 9.79599C36.7332 9.9666 36.9133 10.102 37.1134 10.1936C37.3135 10.2852 37.5292 10.3309 37.7468 10.3278H39.3016V26.1432C39.3016 26.6227 39.4793 27.0826 39.7955 27.4217C40.1117 27.7608 40.5406 27.9513 40.9878 27.9513C41.435 27.9513 41.8639 27.7608 42.1801 27.4217C42.4963 27.0826 42.674 26.6227 42.674 26.1432V8.51842C42.674 8.516 42.674 8.51376 42.674 8.51143C42.674 8.50909 42.674 8.50667 42.674 8.50425Z" fill="#1884C8"/>
<path d="M98.281 7.24314C98.0779 7.02071 97.8235 6.85997 97.5436 6.7773C97.3749 6.72188 97.1993 6.69418 97.0229 6.69513C96.9471 6.69557 96.8715 6.70099 96.7964 6.71137H93.8498C93.6323 6.70834 93.4165 6.75408 93.2164 6.84565C93.0163 6.93723 92.8363 7.07261 92.6878 7.24314C92.5329 7.40803 92.4104 7.60463 92.3276 7.82125C92.2449 8.03788 92.2036 8.27013 92.2061 8.5042C92.2016 8.74314 92.2419 8.98063 92.3246 9.20254C92.4074 9.42444 92.5309 9.62625 92.6878 9.79595C92.8362 9.96656 93.0163 10.102 93.2164 10.1936C93.4165 10.2852 93.6322 10.3308 93.8498 10.3277H95.3508V10.4104H95.3231V22.5981C95.3231 22.8301 95.2804 23.0599 95.1976 23.2742C95.1148 23.4885 94.9935 23.6833 94.8405 23.8473C94.6875 24.0113 94.5059 24.1415 94.306 24.2302C94.1061 24.319 93.8919 24.3647 93.6755 24.3647H87.2513C86.888 24.3644 86.5351 24.2352 86.2474 23.9974C85.9597 23.7596 85.7534 23.4264 85.6607 23.0498V10.3274H87.1548C87.3783 10.3285 87.5998 10.282 87.8065 10.1907C88.0132 10.0994 88.2011 9.96519 88.3591 9.79568C88.5172 9.62618 88.6424 9.42478 88.7275 9.20312C88.8126 8.98146 88.856 8.74392 88.855 8.5042C88.857 8.26884 88.814 8.03555 88.7287 7.81867C88.6434 7.6018 88.5177 7.40594 88.3591 7.24314C88.2028 7.07104 88.0153 6.93508 87.8081 6.84362C87.6009 6.75217 87.3785 6.70716 87.1545 6.71137H84.1868C84.1116 6.701 84.0359 6.69558 83.9601 6.69513C83.7381 6.68999 83.5175 6.73463 83.3126 6.8262C83.1076 6.91778 82.9227 7.05426 82.7698 7.2269C82.6239 7.38621 82.5068 7.57315 82.4245 7.77823C82.3302 8.00681 82.2823 8.25427 82.284 8.5042C82.284 8.53874 82.2866 8.57193 82.2881 8.60566V23.78C82.2877 24.3303 82.3886 24.8753 82.5848 25.3839C82.7811 25.8924 83.0689 26.3544 83.4318 26.7436C83.7947 27.1327 84.2256 27.4414 84.6998 27.6518C85.1741 27.8622 85.6823 27.9704 86.1955 27.97H94.796C95.2588 27.9703 95.7179 27.8822 96.1518 27.7099C96.4135 27.8825 96.7157 27.9715 97.0229 27.9664C97.2465 27.9674 97.468 27.921 97.6747 27.8297C97.8814 27.7384 98.0693 27.6042 98.2273 27.4346C98.3854 27.2651 98.5106 27.0637 98.5957 26.8421C98.6808 26.6204 98.7242 26.3829 98.7232 26.1432V8.97067C98.759 8.81815 98.777 8.66147 98.7769 8.5042C98.7789 8.26884 98.7359 8.03553 98.6506 7.81865C98.5653 7.60177 98.4395 7.40591 98.281 7.24314V7.24314Z" fill="white"/>
<path d="M37.8583 19.7011L26.3811 7.45479C26.0787 6.94868 25.6347 6.69547 25.0491 6.69517C24.7843 6.6907 24.5222 6.75314 24.284 6.87745C24.2483 6.89665 24.2148 6.91827 24.1805 6.93926C24.1651 6.94823 24.15 6.9572 24.1348 6.96617C24.1264 6.97146 24.1181 6.97666 24.1104 6.98205C23.7831 7.18809 23.5301 7.50628 23.392 7.88536C23.2539 8.26444 23.2388 8.68233 23.3492 9.07171V25.9821C23.3452 26.0351 23.3424 26.0886 23.3424 26.1436C23.3378 26.3825 23.3781 26.62 23.4609 26.8419C23.5437 27.0638 23.6672 27.2656 23.8242 27.4353C23.9726 27.6059 24.1526 27.7414 24.3527 27.8329C24.5528 27.9245 24.7685 27.9702 24.9861 27.9671H28.2129C28.4365 27.9681 28.658 27.9216 28.8647 27.8303C29.0714 27.7391 29.2592 27.6048 29.4173 27.4353C29.5754 27.2658 29.7006 27.0644 29.7857 26.8428C29.8708 26.6211 29.9142 26.3835 29.9132 26.1438C29.9152 25.9085 29.8722 25.6752 29.7869 25.4583C29.7016 25.2414 29.5758 25.0456 29.4173 24.8828C29.261 24.7107 29.0735 24.5747 28.8663 24.4833C28.6591 24.3918 28.4367 24.3468 28.2127 24.351H26.7212V12.8942L35.4495 22.2535C35.7329 22.5574 36.0116 22.7297 36.2854 22.7702C36.532 22.8134 36.7847 22.7925 37.0222 22.7094C37.2176 22.64 37.4034 22.5429 37.5748 22.4207C37.7254 22.3096 37.8201 22.2535 37.8583 22.2535C38.1672 21.9113 38.34 21.4536 38.34 20.9773C38.34 20.501 38.1672 20.0433 37.8583 19.7011V19.7011Z" fill="#1EA6FB"/>
<path d="M78.7683 26.1432C78.7679 26.0599 78.7623 25.9768 78.7515 25.8943V22.7726C78.7525 22.5329 78.7091 22.2954 78.624 22.0737C78.5389 21.852 78.4137 21.6507 78.2556 21.4811C78.0976 21.3116 77.9097 21.1774 77.703 21.0861C77.4963 20.9948 77.2748 20.9484 77.0512 20.9494C76.8317 20.9473 76.6142 20.9934 76.4119 21.0848C76.2097 21.1763 76.027 21.3111 75.8752 21.4811C75.7147 21.6488 75.5879 21.8498 75.5026 22.072C75.4173 22.2942 75.3753 22.5327 75.3792 22.7729V24.3505H70.9756C70.758 24.3474 70.5421 24.3931 70.342 24.4846C70.1418 24.5762 69.9616 24.7116 69.8131 24.8821C69.6581 25.047 69.5356 25.2436 69.4529 25.4602C69.3702 25.6769 69.3288 25.9091 69.3314 26.1432C69.3268 26.3821 69.3671 26.6196 69.4499 26.8415C69.5326 27.0634 69.6562 27.2652 69.8131 27.4349C69.9615 27.6055 70.1415 27.741 70.3416 27.8326C70.5418 27.9241 70.7575 27.9698 70.9751 27.9667H76.7451C76.846 27.9858 76.9483 27.9954 77.0507 27.9955C77.2736 28.0004 77.495 27.9572 77.702 27.8684C77.9089 27.7797 78.0971 27.6473 78.2554 27.479C78.467 27.2648 78.6193 26.9921 78.6954 26.6909C78.7448 26.5132 78.7693 26.3286 78.7683 26.1432Z" fill="white"/>
<path d="M69.8626 10.3275C70.0861 10.3285 70.3076 10.282 70.5144 10.1907C70.7211 10.0994 70.9089 9.96519 71.067 9.79568C71.225 9.62618 71.3502 9.42478 71.4354 9.20312C71.5205 8.98146 71.5638 8.74392 71.5629 8.5042C71.5648 8.26885 71.5218 8.03555 71.4365 7.81868C71.3513 7.6018 71.2255 7.40594 71.067 7.24314C70.9106 7.07104 70.7231 6.93508 70.5159 6.84362C70.3088 6.75217 70.0863 6.70716 69.8623 6.71137H66.8908C66.8156 6.701 66.7399 6.69558 66.6641 6.69513C66.4421 6.68998 66.2215 6.73462 66.0166 6.82619C65.8116 6.91777 65.6267 7.05425 65.4738 7.2269C65.2471 7.47181 65.0924 7.78274 65.0291 8.12108C65.0045 8.24708 64.9921 8.37547 64.992 8.5042C64.992 8.50663 64.992 8.50887 64.992 8.51129C64.992 8.51371 64.992 8.51596 64.992 8.51838V26.1432C64.9875 26.3821 65.0278 26.6196 65.1106 26.8415C65.1933 27.0634 65.3169 27.2652 65.4738 27.4349C65.6267 27.6076 65.8115 27.7442 66.0165 27.8358C66.2215 27.9274 66.4421 27.9719 66.6641 27.9667C66.8876 27.9677 67.1091 27.9212 67.3159 27.83C67.5226 27.7387 67.7104 27.6044 67.8685 27.4349C68.0265 27.2654 68.1518 27.064 68.2369 26.8424C68.322 26.6207 68.3653 26.3832 68.3644 26.1434V10.3275H69.8626Z" fill="white"/>
<path d="M57.826 6.73763C57.3884 6.73763 47.6041 6.71135 47.6041 6.71135C47.4456 6.71064 47.2878 6.73464 47.1356 6.78258C46.9017 6.85898 46.6878 6.99309 46.5109 7.17414C46.4892 7.19575 46.4672 7.21639 46.4461 7.23953L46.4425 7.24312C46.4336 7.2529 46.4257 7.2633 46.4174 7.27317C46.3905 7.30394 46.3643 7.33489 46.3397 7.36664C46.0902 7.68477 45.9556 8.08851 45.9606 8.50418C45.9606 8.50544 45.9606 8.50661 45.9606 8.50777C45.9606 8.50894 45.9606 8.50984 45.9606 8.51082C45.9606 8.52419 45.9622 8.53711 45.9625 8.55038C45.9637 9.01693 46.1361 9.46422 46.4423 9.79566C46.5907 9.96627 46.7707 10.1017 46.9709 10.1933C47.171 10.2849 47.3867 10.3306 47.6043 10.3274L56.5348 10.3573C56.9717 10.3573 57.3906 10.5435 57.6996 10.8747C58.0085 11.206 58.182 11.6553 58.182 12.1238V13.7821C58.1818 14.2091 58.0374 14.6214 57.7754 14.9429C57.5135 15.2644 57.1517 15.4733 56.7572 15.5307H45.9604V26.1843C45.9604 27.1871 46.6524 28 47.5876 28C47.6955 27.9998 47.8031 27.9885 47.909 27.9664H50.831C51.0545 27.9674 51.276 27.9209 51.4828 27.8297C51.6895 27.7384 51.8773 27.6041 52.0354 27.4346C52.1934 27.2651 52.3186 27.0637 52.4038 26.8421C52.4889 26.6204 52.5322 26.3829 52.5313 26.1431C52.5332 25.9078 52.4902 25.6745 52.4049 25.4576C52.3197 25.2407 52.1939 25.0449 52.0354 24.8821C51.879 24.71 51.6915 24.574 51.4843 24.4826C51.2772 24.3911 51.0547 24.3461 50.8307 24.3503H49.3328V19.154L57.6369 19.1469C58.15 19.147 58.6582 19.0387 59.1323 18.8282C59.6064 18.6177 60.0372 18.309 60.4001 17.9199C60.7629 17.5308 61.0508 17.0689 61.2471 16.5605C61.4434 16.0521 61.5444 15.5072 61.5443 14.9569V10.9225C61.5451 9.84616 61.1592 8.81084 60.4668 8.03155C59.7744 7.25226 58.8287 6.78888 57.826 6.73763V6.73763Z" fill="white"/>
<path d="M117.451 18.337C116.954 16.8409 115.687 15.6943 114.161 15.5309C114.175 15.5262 107.149 15.5309 107.149 15.5309C106.239 15.5309 105.501 14.8005 105.501 13.8249V12.1238C105.501 11.6553 105.675 11.206 105.984 10.8747C106.293 10.5434 106.712 10.3572 107.149 10.3572H113.558V11.9659C113.556 12.1992 113.598 12.4305 113.684 12.6451C113.769 12.8596 113.895 13.0527 114.054 13.2119C114.208 13.3781 114.392 13.5094 114.594 13.5981C114.796 13.6869 115.012 13.7312 115.23 13.7284C115.453 13.7333 115.675 13.6901 115.882 13.6014C116.089 13.5126 116.277 13.3802 116.435 13.2119C116.594 13.0528 116.721 12.8597 116.806 12.6452C116.891 12.4306 116.934 12.1992 116.931 11.9659V8.50584C116.931 8.50063 116.93 8.49579 116.93 8.49059C116.93 8.48538 116.931 8.48063 116.931 8.47543C116.933 8.24006 116.89 8.00675 116.805 7.78988C116.719 7.573 116.594 7.37714 116.435 7.21436C116.193 6.95677 115.88 6.78963 115.542 6.73767C115.441 6.71928 106.295 6.72655 105.858 6.73767C104.243 6.77893 102.888 7.9511 102.368 9.50882C102.216 9.96244 102.139 10.4407 102.139 10.9226V14.9569C102.139 15.4302 102.214 15.9 102.36 16.3464C102.363 16.3553 102.366 16.365 102.369 16.3742C102.641 17.1861 103.14 17.8881 103.799 18.3843C104.457 18.8806 105.242 19.1469 106.046 19.1469L112.666 19.1768C113.103 19.1768 113.522 19.3629 113.831 19.6942C114.14 20.0255 114.314 20.4749 114.314 20.9434V22.6444C114.314 23.62 113.576 24.3504 112.666 24.3504H106.602L106.892 23.7501L107.052 23.4093C107.055 23.3994 107.059 23.3895 107.062 23.3797C107.198 22.9802 107.197 22.5419 107.059 22.1434L106.969 21.9536C106.927 21.8586 106.879 21.7671 106.824 21.6801C106.702 21.4803 106.538 21.3138 106.346 21.1939C106.087 21.0334 105.794 20.9494 105.495 20.9507C105.49 20.9507 105.485 20.9513 105.48 20.9513C105.476 20.9513 105.473 20.9507 105.47 20.9507C105.456 20.9507 105.442 20.9527 105.428 20.9531C105.406 20.9536 105.385 20.9551 105.363 20.9566C105.114 20.9731 104.872 21.0488 104.653 21.178C104.434 21.3072 104.245 21.4869 104.099 21.704L104.098 21.7033L104.094 21.7106C104.013 21.8323 102.092 25.6964 102.092 26.1427C102.088 26.3817 102.128 26.6192 102.211 26.8411C102.293 27.063 102.417 27.2648 102.574 27.4345C102.722 27.6051 102.902 27.7405 103.102 27.8321C103.303 27.9237 103.518 27.9694 103.736 27.9663H113.769C114.282 27.9664 114.79 27.8581 115.264 27.6475C115.738 27.437 116.169 27.1284 116.532 26.7393C116.895 26.3502 117.183 25.8882 117.379 25.3798C117.575 24.8714 117.676 24.3265 117.676 23.7762V19.742C117.677 19.2633 117.6 18.7881 117.451 18.337V18.337Z" fill="white"/>
<path d="M17.7037 13.7794L17.6028 13.9961C17.6408 13.9264 17.6746 13.854 17.7037 13.7794Z" fill="#F0A93E"/>
<path d="M19.9002 7.9562C19.8342 7.72608 19.7264 7.51226 19.5829 7.3271C19.4394 7.14193 19.2631 6.9891 19.0642 6.87742C18.6568 6.66524 18.188 6.63309 17.7587 6.78787C17.3293 6.94266 16.9738 7.27201 16.7687 7.70503C15.6352 10.1518 14.5064 12.5702 13.3823 14.9605C12.2583 17.3508 11.12 19.7615 9.96751 22.1928L7.47374 16.8446L4.41319 10.3112H10.1376C10.3582 10.313 10.577 10.2679 10.7813 10.1785C10.9856 10.0891 11.1713 9.95721 11.3278 9.79039C11.4908 9.63152 11.6205 9.4374 11.7085 9.22084C11.7964 9.00428 11.8406 8.77019 11.8381 8.53399C11.8354 8.04985 11.6559 7.58611 11.338 7.2423C11.0201 6.89849 10.5892 6.70201 10.1378 6.69505H1.74934C1.44773 6.68981 1.14998 6.7683 0.885014 6.9229C0.637456 7.06738 0.427899 7.27651 0.27575 7.53092C0.123603 7.7872 0.0312645 8.07902 0.00654543 8.38167C-0.020536 8.70341 0.0436109 9.02642 0.190588 9.30841L4.18649 17.8469L8.49392 26.9633C8.62207 27.2805 8.8402 27.5463 9.11732 27.723C9.37558 27.8835 9.66902 27.9674 9.96751 27.9661C10.2703 27.966 10.568 27.8823 10.8318 27.723C11.1191 27.5461 11.3509 27.2816 11.4978 26.9633C12.8767 24.0058 14.2558 21.0632 15.6352 18.1357C17.0146 15.2082 18.4032 12.2656 19.8012 9.30805C19.9036 9.10215 19.9652 8.87581 19.9823 8.6432C19.9993 8.41059 19.9713 8.17671 19.9002 7.9562V7.9562Z" fill="#1EA6FB"/>
<path d="M132.234 0.0209522C130.681 -0.0613068 126.92 0.125189 126.92 0.125189C126.92 0.125189 127.968 2.36045 125.997 6.92641C125.454 8.1584 124.816 9.34021 124.092 10.4598C121.834 14.0019 120.154 15.4467 119.654 15.8315L119.5 15.9442C119.5 15.9442 125.942 12.57 128.195 11.6563C133.497 9.50559 135.34 11.3854 135.34 11.3854C135.34 11.3854 136.65 9.13251 138.101 6.06758C138.584 5.04728 140 1.13194 140 1.13194C140 1.13194 137.592 0.304688 132.234 0.0209522Z" fill="#1EA6FB"/>
<path d="M126.92 0.125183C126.919 0.12608 128.512 3.52499 124.092 10.4598C121.834 14.002 120.154 15.4473 119.655 15.8316L119.5 15.9443C119.5 15.9443 125.942 12.57 128.195 11.6564C133.496 9.50595 135.339 11.3853 135.34 11.3855C135.733 6.19038 126.921 0.124017 126.92 0.125183Z" fill="#1884C8"/>
<path d="M131.082 7.21694C129.954 8.10834 121.868 14.4292 119.688 15.8333C119.988 15.8548 123.967 13.4651 126.069 12.759C129.701 11.5383 132.042 11.6345 132.042 11.6345C132.042 11.6345 135.06 6.9742 136.413 5.41801C137.923 3.68124 140 1.13184 140 1.13184C140 1.13184 137.418 2.21322 131.082 7.21694Z" fill="#1B95E1"/>
</g>
<defs>
<clipPath id="clip0_260_82">
<rect width="140" height="28" fill="white"/>
</clipPath>
</defs>
</svg>
