<svg width="140" height="28" viewBox="0 0 140 28" fill="none" xmlns="http://www.w3.org/2000/svg">
<path d="M42.6739 8.50428C42.6756 8.26557 42.6315 8.02905 42.5444 7.80935C42.4574 7.58965 42.3292 7.39143 42.1678 7.22698C42.0146 7.05777 41.8312 6.92346 41.6284 6.83209C41.4257 6.74071 41.2078 6.69416 40.9879 6.69521C40.9151 6.69566 40.8425 6.70109 40.7704 6.71144H37.7468C37.5293 6.70842 37.3135 6.75416 37.1134 6.84573C36.9133 6.9373 36.7333 7.07269 36.5848 7.24321C36.4299 7.40811 36.3074 7.6047 36.2246 7.82133C36.1419 8.03796 36.1006 8.2702 36.1031 8.50428C36.0986 8.74322 36.1389 8.9807 36.2216 9.20261C36.3044 9.42452 36.4279 9.62632 36.5848 9.79602C36.7332 9.96663 36.9133 10.1021 37.1134 10.1937C37.3135 10.2852 37.5292 10.3309 37.7468 10.3278H39.3016V26.1432C39.3016 26.6228 39.4793 27.0827 39.7955 27.4217C40.1117 27.7608 40.5406 27.9513 40.9878 27.9513C41.435 27.9513 41.8639 27.7608 42.1801 27.4217C42.4963 27.0827 42.6739 26.6228 42.6739 26.1432V8.51845C42.6739 8.51603 42.6739 8.51379 42.6739 8.51145C42.6739 8.50912 42.6739 8.5067 42.6739 8.50428Z" fill="#1884C8"/>
<path d="M98.281 7.24323C98.0779 7.0208 97.8235 6.86006 97.5436 6.77739C97.3749 6.72197 97.1993 6.69427 97.0228 6.69522C96.9471 6.69566 96.8715 6.70108 96.7964 6.71146H93.8498C93.6323 6.70843 93.4165 6.75417 93.2164 6.84574C93.0163 6.93732 92.8363 7.0727 92.6878 7.24323C92.5329 7.40812 92.4104 7.60472 92.3276 7.82134C92.2449 8.03797 92.2036 8.27022 92.2061 8.50429C92.2016 8.74323 92.2419 8.98072 92.3246 9.20263C92.4074 9.42453 92.5309 9.62634 92.6878 9.79604C92.8362 9.96665 93.0163 10.1021 93.2164 10.1937C93.4165 10.2852 93.6322 10.3309 93.8498 10.3278H95.3508V10.4105H95.3231V22.5982C95.3231 22.8302 95.2804 23.0599 95.1976 23.2743C95.1148 23.4886 94.9935 23.6833 94.8405 23.8474C94.6875 24.0114 94.5059 24.1415 94.306 24.2303C94.1061 24.3191 93.8919 24.3648 93.6755 24.3648H87.2513C86.888 24.3644 86.5351 24.2353 86.2474 23.9975C85.9597 23.7597 85.7534 23.4265 85.6606 23.0499V10.3275H87.1547C87.3783 10.3285 87.5998 10.2821 87.8065 10.1908C88.0132 10.0995 88.2011 9.96528 88.3591 9.79577C88.5172 9.62627 88.6424 9.42487 88.7275 9.20321C88.8126 8.98155 88.856 8.74401 88.855 8.50429C88.857 8.26894 88.814 8.03564 88.7287 7.81877C88.6434 7.60189 88.5177 7.40603 88.3591 7.24323C88.2028 7.07113 88.0153 6.93517 87.8081 6.84371C87.6009 6.75226 87.3785 6.70725 87.1545 6.71146H84.1868C84.1116 6.70109 84.0359 6.69567 83.9601 6.69522C83.7381 6.69008 83.5175 6.73472 83.3126 6.82629C83.1076 6.91787 82.9227 7.05435 82.7698 7.22699C82.6239 7.3863 82.5068 7.57324 82.4245 7.77832C82.3302 8.0069 82.2823 8.25436 82.284 8.50429C82.284 8.53883 82.2866 8.57202 82.2881 8.60575V23.7801C82.2877 24.3304 82.3886 24.8754 82.5848 25.3839C82.7811 25.8925 83.0689 26.3545 83.4318 26.7437C83.7947 27.1328 84.2256 27.4414 84.6998 27.6519C85.174 27.8623 85.6823 27.9704 86.1955 27.9701H94.796C95.2588 27.9704 95.7179 27.8823 96.1518 27.7099C96.4135 27.8826 96.7157 27.9716 97.0229 27.9665C97.2465 27.9675 97.468 27.921 97.6747 27.8298C97.8814 27.7385 98.0693 27.6042 98.2273 27.4347C98.3854 27.2652 98.5106 27.0638 98.5957 26.8422C98.6808 26.6205 98.7242 26.383 98.7232 26.1432V8.97076C98.759 8.81824 98.777 8.66156 98.7769 8.50429C98.7789 8.26893 98.7359 8.03562 98.6506 7.81874C98.5653 7.60186 98.4395 7.40601 98.281 7.24323V7.24323Z" fill="#616161"/>
<path d="M37.8585 19.7011L26.3814 7.45479C26.079 6.94868 25.635 6.69547 25.0494 6.69517C24.7845 6.6907 24.5224 6.75314 24.2843 6.87745C24.2486 6.89665 24.215 6.91827 24.1808 6.93926C24.1653 6.94823 24.1503 6.9572 24.135 6.96617C24.1267 6.97146 24.1183 6.97666 24.1107 6.98205C23.7834 7.18809 23.5303 7.50628 23.3922 7.88536C23.2541 8.26444 23.239 8.68233 23.3494 9.07171V25.9821C23.3454 26.0351 23.3426 26.0886 23.3426 26.1436C23.3381 26.3825 23.3784 26.62 23.4612 26.8419C23.5439 27.0638 23.6675 27.2656 23.8244 27.4353C23.9728 27.6059 24.1528 27.7414 24.3529 27.8329C24.553 27.9245 24.7688 27.9702 24.9863 27.9671H28.2132C28.4367 27.9681 28.6582 27.9216 28.8649 27.8303C29.0717 27.7391 29.2595 27.6048 29.4175 27.4353C29.5756 27.2658 29.7008 27.0644 29.7859 26.8427C29.8711 26.6211 29.9144 26.3835 29.9135 26.1438C29.9154 25.9085 29.8724 25.6752 29.7871 25.4583C29.7018 25.2414 29.5761 25.0456 29.4175 24.8828C29.2612 24.7107 29.0737 24.5747 28.8665 24.4832C28.6594 24.3918 28.4369 24.3468 28.2129 24.351H26.7214V12.8942L35.4497 22.2535C35.7331 22.5574 36.0118 22.7297 36.2857 22.7702C36.5323 22.8134 36.7849 22.7925 37.0224 22.7094C37.2178 22.64 37.4037 22.5429 37.5751 22.4207C37.7256 22.3096 37.8203 22.2535 37.8585 22.2535C38.1674 21.9113 38.3402 21.4536 38.3402 20.9773C38.3402 20.501 38.1674 20.0433 37.8585 19.7011V19.7011Z" fill="#1EA6FB"/>
<path d="M78.7683 26.1433C78.7679 26.06 78.7623 25.9769 78.7515 25.8944V22.7727C78.7525 22.533 78.7091 22.2955 78.624 22.0738C78.5389 21.8521 78.4137 21.6507 78.2556 21.4812C78.0975 21.3117 77.9097 21.1775 77.703 21.0862C77.4963 20.9949 77.2748 20.9485 77.0512 20.9495C76.8317 20.9474 76.6142 20.9935 76.4119 21.0849C76.2097 21.1764 76.027 21.3112 75.8752 21.4812C75.7147 21.6489 75.5879 21.8499 75.5026 22.0721C75.4173 22.2942 75.3753 22.5328 75.3792 22.773V24.3506H70.9756C70.758 24.3475 70.5421 24.3932 70.342 24.4847C70.1418 24.5763 69.9616 24.7116 69.8131 24.8822C69.6581 25.0471 69.5356 25.2437 69.4529 25.4603C69.3702 25.6769 69.3288 25.9092 69.3314 26.1433C69.3268 26.3822 69.3671 26.6197 69.4499 26.8416C69.5326 27.0635 69.6562 27.2653 69.8131 27.435C69.9615 27.6056 70.1415 27.7411 70.3416 27.8326C70.5418 27.9242 70.7575 27.9699 70.9751 27.9668H76.7451C76.846 27.9859 76.9483 27.9955 77.0507 27.9956C77.2736 28.0005 77.495 27.9573 77.702 27.8685C77.9089 27.7798 78.0971 27.6473 78.2554 27.4791C78.467 27.2649 78.6193 26.9922 78.6954 26.691C78.7448 26.5133 78.7693 26.3287 78.7683 26.1433Z" fill="#616161"/>
<path d="M69.8628 10.3275C70.0864 10.3285 70.3079 10.2821 70.5146 10.1908C70.7213 10.0995 70.9091 9.96528 71.0672 9.79577C71.2253 9.62627 71.3505 9.42487 71.4356 9.20321C71.5207 8.98155 71.564 8.74401 71.5631 8.5043C71.5651 8.26894 71.5221 8.03564 71.4368 7.81877C71.3515 7.60189 71.2257 7.40603 71.0672 7.24323C70.9109 7.07113 70.7234 6.93517 70.5162 6.84372C70.309 6.75226 70.0866 6.70725 69.8626 6.71146H66.891C66.8158 6.70109 66.7401 6.69567 66.6643 6.69522C66.4423 6.69007 66.2218 6.73471 66.0168 6.82628C65.8118 6.91786 65.627 7.05434 65.4741 7.22699C65.2473 7.4719 65.0927 7.78283 65.0293 8.12117C65.0047 8.24717 64.9923 8.37556 64.9923 8.5043C64.9923 8.50672 64.9923 8.50896 64.9923 8.51138C64.9923 8.5138 64.9923 8.51605 64.9923 8.51847V26.1432C64.9877 26.3822 65.028 26.6197 65.1108 26.8416C65.1936 27.0635 65.3171 27.2653 65.4741 27.435C65.6269 27.6077 65.8118 27.7443 66.0167 27.8358C66.2217 27.9274 66.4423 27.972 66.6643 27.9668C66.8879 27.9678 67.1094 27.9213 67.3161 27.83C67.5228 27.7388 67.7106 27.6045 67.8687 27.435C68.0268 27.2655 68.152 27.0641 68.2371 26.8424C68.3222 26.6208 68.3656 26.3832 68.3646 26.1435V10.3275H69.8628Z" fill="#616161"/>
<path d="M57.826 6.73772C57.3884 6.73772 47.6041 6.71144 47.6041 6.71144C47.4456 6.71074 47.2878 6.73473 47.1356 6.78267C46.9017 6.85908 46.6878 6.99318 46.5109 7.17423C46.4892 7.19585 46.4672 7.21648 46.4461 7.23962L46.4425 7.24321C46.4336 7.25299 46.4257 7.26339 46.4174 7.27326C46.3905 7.30403 46.3643 7.33498 46.3397 7.36673C46.0902 7.68487 45.9556 8.0886 45.9606 8.50428C45.9606 8.50553 45.9606 8.5067 45.9606 8.50786C45.9606 8.50903 45.9606 8.50993 45.9606 8.51091C45.9606 8.52428 45.9622 8.5372 45.9625 8.55047C45.9637 9.01702 46.1361 9.46431 46.4423 9.79575C46.5907 9.96636 46.7707 10.1018 46.9709 10.1934C47.171 10.285 47.3867 10.3307 47.6043 10.3275L56.5348 10.3574C56.9717 10.3574 57.3906 10.5436 57.6995 10.8748C58.0085 11.2061 58.182 11.6554 58.182 12.1239V13.7822C58.1818 14.2091 58.0374 14.6215 57.7754 14.943C57.5135 15.2645 57.1517 15.4733 56.7572 15.5308H45.9604V26.1844C45.9604 27.1872 46.6524 28.0001 47.5876 28.0001C47.6955 27.9999 47.8031 27.9886 47.909 27.9665H50.831C51.0545 27.9675 51.276 27.921 51.4828 27.8297C51.6895 27.7385 51.8773 27.6042 52.0354 27.4347C52.1934 27.2652 52.3186 27.0638 52.4038 26.8421C52.4889 26.6205 52.5322 26.3829 52.5313 26.1432C52.5332 25.9079 52.4902 25.6746 52.4049 25.4577C52.3197 25.2408 52.1939 25.045 52.0354 24.8822C51.879 24.7101 51.6915 24.5741 51.4843 24.4827C51.2772 24.3912 51.0547 24.3462 50.8307 24.3504H49.3328V19.1541L57.6369 19.147C58.15 19.1471 58.6582 19.0388 59.1323 18.8283C59.6064 18.6177 60.0372 18.3091 60.4001 17.92C60.7629 17.5309 61.0508 17.069 61.2471 16.5606C61.4434 16.0522 61.5444 15.5073 61.5443 14.957V10.9226C61.5451 9.84625 61.1592 8.81093 60.4668 8.03164C59.7744 7.25235 58.8286 6.78897 57.826 6.73772V6.73772Z" fill="#616161"/>
<path d="M117.451 18.3371C116.954 16.841 115.687 15.6944 114.161 15.5309C114.175 15.5263 107.149 15.5309 107.149 15.5309C106.239 15.5309 105.501 14.8005 105.501 13.8249V12.1239C105.501 11.6553 105.675 11.206 105.984 10.8747C106.293 10.5434 106.712 10.3573 107.149 10.3573H113.558V11.966C113.556 12.1992 113.598 12.4306 113.684 12.6451C113.769 12.8597 113.895 13.0528 114.054 13.212C114.208 13.3781 114.392 13.5095 114.594 13.5982C114.796 13.6869 115.012 13.7312 115.23 13.7285C115.453 13.7334 115.675 13.6902 115.882 13.6014C116.089 13.5127 116.277 13.3803 116.435 13.212C116.594 13.0528 116.721 12.8598 116.806 12.6452C116.891 12.4306 116.934 12.1993 116.931 11.966V8.5059C116.931 8.50069 116.93 8.49585 116.93 8.49065C116.93 8.48544 116.931 8.48069 116.931 8.47549C116.933 8.24012 116.89 8.00681 116.805 7.78994C116.719 7.57306 116.594 7.3772 116.435 7.21442C116.193 6.95683 115.88 6.7897 115.542 6.73773C115.441 6.71934 106.295 6.72661 105.858 6.73773C104.243 6.779 102.888 7.95116 102.368 9.50888C102.216 9.9625 102.139 10.4408 102.139 10.9226V14.957C102.139 15.4302 102.214 15.9 102.36 16.3464C102.363 16.3554 102.366 16.3651 102.369 16.3742C102.641 17.1861 103.14 17.8881 103.799 18.3844C104.457 18.8806 105.242 19.147 106.046 19.147L112.666 19.1769C113.103 19.1769 113.522 19.363 113.831 19.6943C114.14 20.0256 114.314 20.4749 114.314 20.9434V22.6444C114.314 23.62 113.576 24.3504 112.666 24.3504H106.602L106.892 23.7502L107.052 23.4093C107.055 23.3994 107.059 23.3896 107.062 23.3797C107.198 22.9803 107.197 22.542 107.059 22.1434L106.969 21.9537C106.927 21.8586 106.879 21.7672 106.824 21.6802C106.702 21.4803 106.538 21.3138 106.346 21.194C106.087 21.0334 105.794 20.9495 105.495 20.9508C105.49 20.9508 105.485 20.9513 105.48 20.9513C105.476 20.9513 105.473 20.9508 105.47 20.9508C105.456 20.9508 105.442 20.9528 105.428 20.9531C105.406 20.9536 105.385 20.9552 105.363 20.9566C105.114 20.9732 104.872 21.0488 104.653 21.1781C104.434 21.3073 104.245 21.4869 104.099 21.704L104.098 21.7033L104.094 21.7107C104.013 21.8324 102.092 25.6964 102.092 26.1428C102.088 26.3817 102.128 26.6192 102.211 26.8411C102.293 27.063 102.417 27.2648 102.574 27.4345C102.722 27.6051 102.902 27.7406 103.102 27.8322C103.303 27.9237 103.518 27.9694 103.736 27.9663H113.769C114.282 27.9664 114.79 27.8581 115.264 27.6476C115.738 27.4371 116.169 27.1284 116.532 26.7393C116.895 26.3502 117.183 25.8883 117.379 25.3799C117.575 24.8715 117.676 24.3266 117.676 23.7763V19.7421C117.677 19.2634 117.6 18.7881 117.451 18.3371V18.3371Z" fill="#616161"/>
<path d="M17.7039 13.7794L17.6028 13.9961C17.6409 13.9264 17.6747 13.854 17.7039 13.7794Z" fill="#F0A93E"/>
<path d="M19.9007 7.95623C19.8347 7.72611 19.7269 7.51229 19.5834 7.32713C19.4399 7.14196 19.2636 6.98913 19.0647 6.87745C18.6573 6.66527 18.1884 6.63312 17.7591 6.7879C17.3298 6.94269 16.9743 7.27204 16.7692 7.70506C15.6357 10.1518 14.5069 12.5703 13.3828 14.9605C12.2588 17.3508 11.1205 19.7616 9.968 22.1928L7.47422 16.8446L4.41368 10.3112H10.1381C10.3587 10.313 10.5775 10.2679 10.7818 10.1785C10.986 10.0892 11.1718 9.95724 11.3282 9.79042C11.4912 9.63155 11.621 9.43743 11.709 9.22087C11.7969 9.00431 11.8411 8.77021 11.8385 8.53402C11.8359 8.04988 11.6564 7.58614 11.3385 7.24233C11.0206 6.89852 10.5897 6.70204 10.1382 6.69508H1.74983C1.44822 6.68984 1.15047 6.76833 0.885502 6.92293C0.637943 7.06741 0.428387 7.27654 0.276238 7.53095C0.124092 7.78723 0.0317528 8.07905 0.00703371 8.3817C-0.0200477 8.70344 0.0440992 9.02645 0.191076 9.30844L4.18697 17.847L8.4944 26.9633C8.62255 27.2805 8.84069 27.5463 9.1178 27.723C9.37606 27.8835 9.6695 27.9674 9.968 27.9661C10.2708 27.9661 10.5685 27.8823 10.8323 27.723C11.1196 27.5461 11.3514 27.2817 11.4983 26.9633C12.8772 24.0058 14.2563 21.0633 15.6357 18.1357C17.015 15.2082 18.4037 12.2656 19.8017 9.30808C19.9041 9.10218 19.9657 8.87584 19.9827 8.64323C19.9998 8.41062 19.9718 8.17674 19.9007 7.95623V7.95623Z" fill="#1EA6FB"/>
<path d="M132.234 0.0210132C130.681 -0.0612458 126.92 0.12525 126.92 0.12525C126.92 0.12525 127.968 2.36051 125.996 6.92647C125.453 8.15846 124.816 9.34026 124.092 10.4598C121.834 14.0019 120.154 15.4468 119.654 15.8315L119.5 15.9443C119.5 15.9443 125.942 12.57 128.195 11.6564C133.496 9.50565 135.34 11.3855 135.34 11.3855C135.34 11.3855 136.649 9.13257 138.1 6.06763C138.583 5.04734 140 1.132 140 1.132C140 1.132 137.592 0.304749 132.234 0.0210132Z" fill="#1EA6FB"/>
<path d="M126.92 0.125244C126.919 0.126141 128.512 3.52504 124.092 10.4598C121.834 14.0021 120.154 15.4474 119.655 15.8316L119.5 15.9444C119.5 15.9444 125.942 12.57 128.195 11.6565C133.496 9.506 135.339 11.3853 135.34 11.3856C135.733 6.19043 126.921 0.124078 126.92 0.125244Z" fill="#1884C8"/>
<path d="M131.082 7.217C129.954 8.10839 121.868 14.4292 119.688 15.8334C119.988 15.8548 123.967 13.4652 126.069 12.759C129.701 11.5383 132.042 11.6346 132.042 11.6346C132.042 11.6346 135.06 6.97426 136.413 5.41807C137.923 3.6813 140 1.1319 140 1.1319C140 1.1319 137.418 2.21328 131.082 7.217Z" fill="#1B95E1"/>
</svg>
