<svg width="20" height="20" viewBox="0 0 20 20" fill="current" xmlns="http://www.w3.org/2000/svg">
<path d="M17.9639 4.31133C17.9634 4.30742 17.9627 4.30352 17.9621 4.29961C17.9579 4.27345 17.9515 4.24771 17.9429 4.22266C17.9417 4.21914 17.9404 4.21563 17.9391 4.21219C17.9297 4.18691 17.9182 4.1625 17.9047 4.13922C17.9028 4.13599 17.9008 4.13279 17.8988 4.12961C17.8842 4.10585 17.8674 4.08345 17.8488 4.06266C17.8476 4.06125 17.8468 4.05961 17.8455 4.05828C17.8444 4.05695 17.8429 4.05609 17.8417 4.05484C17.8226 4.0345 17.8018 4.01588 17.7794 3.99922C17.7764 3.99703 17.7735 3.99477 17.7705 3.99266C17.7484 3.97699 17.7249 3.96329 17.7003 3.95172C17.6972 3.95023 17.6943 3.94867 17.6912 3.94727C17.6666 3.93633 17.641 3.92754 17.6149 3.92102L17.6053 3.91852C17.5796 3.91268 17.5535 3.90902 17.5272 3.90758L17.5143 3.90695C17.5096 3.9068 17.5048 3.90625 17.5 3.90625H2.5C2.49508 3.90625 2.49031 3.9068 2.48539 3.90703C2.48125 3.90711 2.47711 3.90734 2.47297 3.90766C2.44659 3.90908 2.42037 3.91274 2.39461 3.91859L2.38523 3.92102C2.359 3.92754 2.33338 3.93635 2.30867 3.94734C2.3057 3.94867 2.30281 3.95023 2.29977 3.95164C2.27519 3.96325 2.25166 3.97698 2.22945 3.99266C2.22648 3.99477 2.22359 3.99703 2.2207 3.99922C2.19828 4.01586 2.17739 4.03448 2.15828 4.05484C2.15703 4.05609 2.15562 4.05695 2.15445 4.05828C2.1532 4.05961 2.15242 4.06125 2.15117 4.06266C2.13255 4.08345 2.11582 4.10585 2.10117 4.12961L2.09531 4.13914C2.08178 4.16246 2.07028 4.1869 2.06094 4.21219L2.05703 4.22258C2.04847 4.24764 2.04207 4.27338 2.03789 4.29953C2.03727 4.30352 2.03656 4.30734 2.03609 4.31133C2.03305 4.33242 2.03143 4.35369 2.03125 4.375V15C2.03158 15.29 2.14692 15.568 2.35197 15.773C2.55701 15.9781 2.83502 16.0934 3.125 16.0938H16.875C17.165 16.0934 17.443 15.9781 17.648 15.773C17.8531 15.568 17.9684 15.29 17.9688 15V4.375C17.9686 4.35369 17.967 4.33242 17.9639 4.31133ZM17.0312 14.5594L12.0573 10L17.0312 5.44062V14.5594ZM2.96875 5.44062L7.94266 10L2.96875 14.5594V5.44062ZM10 10.6141L3.70508 4.84375H16.2949L10 10.6141ZM8.63641 10.6359L9.68328 11.5955C9.76973 11.6748 9.88276 11.7188 10 11.7188C10.1173 11.7188 10.2303 11.6748 10.3168 11.5955L11.3637 10.6359L16.2949 15.1562H3.70508L8.63641 10.6359Z" fill="#C7C7C7"/>
</svg>
