<svg xmlns="http://www.w3.org/2000/svg" xmlns:xlink="http://www.w3.org/1999/xlink" width="32" height="32" viewBox="0 0 32 32">
  <defs>
    <clipPath id="clip-path">
      <rect id="Rectangle_4157" data-name="Rectangle 4157" width="32" height="32" transform="translate(2336 4368)" fill="#fff" stroke="#707070" stroke-width="1"/>
    </clipPath>
  </defs>
  <g id="Mask_Group_11" data-name="Mask Group 11" transform="translate(-2336 -4368)" clip-path="url(#clip-path)">
    <g id="solar-energy" transform="translate(2336 4368)">
      <path id="Path_240895" data-name="Path 240895" d="M16,3.585A12.415,12.415,0,1,0,28.415,16,12.429,12.429,0,0,0,16,3.585Zm0,23.58A11.165,11.165,0,1,1,27.165,16,11.178,11.178,0,0,1,16,27.165Z" transform="translate(0 0)" fill="#242424"/>
      <path id="Path_240896" data-name="Path 240896" d="M16,7.057A8.943,8.943,0,1,0,24.943,16,8.953,8.953,0,0,0,16,7.057Zm0,16.636A7.693,7.693,0,1,1,23.693,16,7.7,7.7,0,0,1,16,23.693Z" transform="translate(0 0)" fill="#242424"/>
      <path id="Path_240897" data-name="Path 240897" d="M16,2.488a.625.625,0,0,0,.625-.625V.625a.625.625,0,1,0-1.25,0V1.863A.625.625,0,0,0,16,2.488Z" transform="translate(0)" fill="#242424"/>
      <path id="Path_240898" data-name="Path 240898" d="M16,29.512a.625.625,0,0,0-.625.625v1.238a.625.625,0,1,0,1.25,0V30.137A.625.625,0,0,0,16,29.512Z" transform="translate(0 0)" fill="#242424"/>
      <path id="Path_240899" data-name="Path 240899" d="M31.375,15.375H30.137a.625.625,0,1,0,0,1.25h1.238a.625.625,0,1,0,0-1.25Z" transform="translate(0 0)" fill="#242424"/>
      <path id="Path_240900" data-name="Path 240900" d="M1.863,15.375H.625a.625.625,0,1,0,0,1.25H1.863a.625.625,0,1,0,0-1.25Z" transform="translate(0 0)" fill="#242424"/>
      <path id="Path_240901" data-name="Path 240901" d="M26,6.629a.623.623,0,0,0,.442-.183l.876-.876a.625.625,0,0,0-.884-.884l-.876.876A.625.625,0,0,0,26,6.629Z" transform="translate(0 0)" fill="#242424"/>
      <path id="Path_240902" data-name="Path 240902" d="M5.562,25.554l-.876.876a.625.625,0,1,0,.884.884l.876-.876a.625.625,0,0,0-.884-.884Z" transform="translate(0 0)" fill="#242424"/>
      <path id="Path_240903" data-name="Path 240903" d="M26.438,25.554a.625.625,0,0,0-.884.884l.876.876a.625.625,0,1,0,.884-.884Z" transform="translate(0 0)" fill="#242424"/>
      <path id="Path_240904" data-name="Path 240904" d="M5.562,6.446a.625.625,0,1,0,.884-.884L5.57,4.686a.625.625,0,0,0-.884.884Z" transform="translate(0 0)" fill="#242424"/>
      <path id="Path_240905" data-name="Path 240905" d="M19.287,14.061H16.911V11.427a.625.625,0,0,0-1.162-.32l-3.573,6a.625.625,0,0,0,.537.945h2.233v2.519a.625.625,0,0,0,1.153.334l3.716-5.887a.625.625,0,0,0-.528-.959ZM16.2,18.412v-.983a.625.625,0,0,0-.625-.625H13.812L15.661,13.7v.987a.625.625,0,0,0,.625.625h1.868Z" transform="translate(0 0)" fill="#242424"/>
    </g>
  </g>
</svg>
