<svg width="20" height="20" viewBox="0 0 20 20" fill="current" xmlns="http://www.w3.org/2000/svg">
<path d="M17.3438 7.81242C17.3438 7.93674 17.2944 8.05598 17.2065 8.1439C17.1186 8.23182 16.9994 8.28123 16.8751 8.28125C16.7508 8.28127 16.6315 8.2319 16.5436 8.14401C16.4557 8.05612 16.4063 7.9369 16.4062 7.81258L16.4058 4.25711L11.5792 9.08367C11.5358 9.12778 11.4841 9.16286 11.4271 9.18689C11.3701 9.21092 11.3089 9.22342 11.247 9.22367C11.1851 9.22392 11.1238 9.21192 11.0666 9.18836C11.0094 9.1648 10.9574 9.13014 10.9136 9.08638C10.8699 9.04263 10.8352 8.99064 10.8116 8.93343C10.7881 8.87621 10.7761 8.8149 10.7763 8.75302C10.7766 8.69114 10.7891 8.62992 10.8131 8.5729C10.8371 8.51588 10.8722 8.46418 10.9163 8.42078L15.7429 3.59422L12.1875 3.59375C12.0632 3.59375 11.944 3.54436 11.856 3.45646C11.7681 3.36855 11.7188 3.24932 11.7188 3.125C11.7188 3.00068 11.7681 2.88145 11.856 2.79354C11.944 2.70564 12.0632 2.65625 12.1875 2.65625H12.1876L16.8745 2.65687C16.9988 2.65687 17.118 2.70625 17.2059 2.79414C17.2938 2.88203 17.3432 3.00124 17.3432 3.12555L17.3438 7.81242ZM14.375 10.7812C14.2507 10.7812 14.1315 10.8306 14.0435 10.9185C13.9556 11.0065 13.9062 11.1257 13.9062 11.25V16.25C13.9062 16.2914 13.8897 16.3311 13.8604 16.3604C13.8311 16.3897 13.7914 16.4062 13.75 16.4062H3.75C3.70858 16.4062 3.66887 16.3897 3.63958 16.3604C3.61029 16.3311 3.59381 16.2914 3.59375 16.25V6.25C3.59381 6.20858 3.61029 6.16887 3.63958 6.13958C3.66887 6.11029 3.70858 6.09381 3.75 6.09375H8.75C8.87432 6.09375 8.99355 6.04436 9.08146 5.95646C9.16936 5.86855 9.21875 5.74932 9.21875 5.625C9.21875 5.50068 9.16936 5.38145 9.08146 5.29354C8.99355 5.20564 8.87432 5.15625 8.75 5.15625H3.75C3.46002 5.15658 3.18201 5.27192 2.97697 5.47697C2.77192 5.68201 2.65658 5.96002 2.65625 6.25V16.25C2.65658 16.54 2.77192 16.818 2.97697 17.023C3.18201 17.2281 3.46002 17.3434 3.75 17.3438H13.75C14.04 17.3434 14.318 17.2281 14.523 17.023C14.7281 16.818 14.8434 16.54 14.8438 16.25V11.25C14.8438 11.1257 14.7944 11.0065 14.7065 10.9185C14.6185 10.8306 14.4993 10.7812 14.375 10.7812Z" fill="#1EA6FB"/>
</svg>
