<svg width="29" height="28" viewBox="0 0 29 28" fill="none" xmlns="http://www.w3.org/2000/svg">
<path d="M25.3827 6.10422C25.3823 6.08796 25.3815 6.07177 25.3803 6.05566C25.3793 6.04253 25.378 6.02948 25.3764 6.0165C25.371 5.97325 25.3624 5.93048 25.3505 5.88853C25.3468 5.87506 25.3428 5.86168 25.3385 5.84839C25.3338 5.83463 25.3288 5.82099 25.3234 5.80748C25.3185 5.79456 25.3132 5.78176 25.3077 5.76909C25.2839 5.71671 25.2552 5.66665 25.2221 5.61958C25.2052 5.59572 25.187 5.57273 25.1678 5.55067C25.163 5.54509 25.1588 5.53919 25.1538 5.53372C25.1496 5.52913 25.145 5.5253 25.1406 5.52081C25.1301 5.50981 25.1192 5.49908 25.1081 5.48866C25.0978 5.4789 25.0874 5.46938 25.0767 5.46011C25.0661 5.45122 25.0554 5.44258 25.0444 5.43419C25.0326 5.42482 25.0205 5.41578 25.0082 5.40706C24.9975 5.39963 24.9864 5.39273 24.9754 5.38573C24.9624 5.37753 24.9495 5.36933 24.936 5.36189C24.9244 5.35533 24.9125 5.34942 24.9006 5.34341C24.8874 5.33684 24.8743 5.33028 24.8609 5.32427C24.8477 5.31858 24.8344 5.31355 24.8209 5.30841C24.808 5.30348 24.7952 5.29856 24.7822 5.29419C24.768 5.28948 24.7536 5.28566 24.7391 5.28172C24.7262 5.27811 24.7133 5.27461 24.7003 5.27166C24.6858 5.26855 24.6712 5.26581 24.6566 5.26345C24.6428 5.26101 24.6289 5.25889 24.615 5.25711C24.6011 5.25549 24.5871 5.25421 24.5731 5.25328C24.5578 5.25219 24.5426 5.25131 24.5272 5.25098C24.521 5.25077 24.5151 5.25 24.5088 5.25H3.50879C3.50288 5.25 3.4973 5.25077 3.49129 5.25087C3.47519 5.25124 3.45911 5.25204 3.44305 5.25328C3.42971 5.25437 3.41659 5.25547 3.40346 5.25689C3.38878 5.25877 3.37416 5.26103 3.3596 5.26367C3.3456 5.26608 3.33171 5.26837 3.31804 5.27155C3.30426 5.27461 3.2907 5.27833 3.27702 5.28205C3.26324 5.28587 3.24946 5.28959 3.2359 5.29408C3.22223 5.29845 3.20877 5.3037 3.19532 5.30884C3.18252 5.31377 3.16973 5.31858 3.15726 5.32405C3.14326 5.33017 3.1297 5.33706 3.11602 5.34395C3.10454 5.34975 3.09305 5.35533 3.0819 5.36156C3.06823 5.36922 3.05488 5.37764 3.04143 5.38617C3.03082 5.39295 3.01999 5.39963 3.00971 5.40695C2.99713 5.41559 2.98499 5.42489 2.97285 5.4343C2.96207 5.44261 2.9515 5.45118 2.94113 5.46C2.93033 5.46933 2.91975 5.47892 2.90941 5.48877C2.89826 5.49916 2.88754 5.50977 2.87693 5.5207C2.87266 5.52519 2.86796 5.52913 2.8638 5.53383C2.85877 5.5393 2.85462 5.54509 2.8498 5.55056C2.8306 5.57265 2.81245 5.59565 2.79545 5.61947C2.71219 5.73713 2.65922 5.87349 2.64123 6.0165C2.63962 6.02948 2.63831 6.04253 2.63729 6.05566C2.63605 6.07184 2.63525 6.08799 2.63488 6.10411C2.63466 6.11111 2.63379 6.118 2.63379 6.125V21C2.63431 21.464 2.81885 21.9088 3.14693 22.2369C3.475 22.5649 3.91982 22.7495 4.38379 22.75H23.6338C24.0978 22.7495 24.5426 22.5649 24.8706 22.2369C25.1987 21.9088 25.3833 21.464 25.3838 21V6.125C25.3838 6.118 25.3829 6.11111 25.3827 6.10422ZM4.38379 8.11398L10.8048 14L4.38379 19.8859V8.11398ZM5.7583 21L12.0998 15.187L13.4175 16.395C13.5789 16.5429 13.7899 16.625 14.0088 16.625C14.2277 16.625 14.4387 16.5429 14.6001 16.395L15.9179 15.187L22.2593 21H5.7583ZM17.2128 14L23.634 8.11398L23.6348 19.8868L17.2128 14Z" fill="#414141"/>
</svg>
