<svg width="29" height="28" viewBox="0 0 29 28" fill="none" xmlns="http://www.w3.org/2000/svg">
<path d="M25.3837 14.0001C25.3803 16.8645 24.2977 19.6224 22.3518 21.7244C20.4058 23.8263 17.7394 25.1179 14.8837 25.3418V16.6252H17.5087C17.7408 16.6252 17.9634 16.533 18.1275 16.3689C18.2916 16.2049 18.3837 15.9823 18.3837 15.7502C18.3837 15.5182 18.2916 15.2956 18.1275 15.1315C17.9634 14.9674 17.7408 14.8752 17.5087 14.8752H14.8837V12.2502C14.8843 11.7863 15.0688 11.3414 15.3969 11.0134C15.725 10.6853 16.1698 10.5007 16.6337 10.5002H18.3837C18.6158 10.5002 18.8384 10.408 19.0025 10.2439C19.1666 10.0799 19.2587 9.85729 19.2587 9.62523C19.2587 9.39316 19.1666 9.1706 19.0025 9.00651C18.8384 8.84241 18.6158 8.75023 18.3837 8.75023H16.6337C15.7058 8.7513 14.8162 9.12039 14.16 9.77654C13.5039 10.4327 13.1348 11.3223 13.1337 12.2502V14.8752H10.5087C10.2767 14.8752 10.0541 14.9674 9.89002 15.1315C9.72593 15.2956 9.63374 15.5182 9.63374 15.7502C9.63374 15.9823 9.72593 16.2049 9.89002 16.3689C10.0541 16.533 10.2767 16.6252 10.5087 16.6252H13.1337V25.3418C10.9278 25.1716 8.81929 24.3618 7.06655 23.0116C5.3138 21.6613 3.99287 19.8293 3.26553 17.7397C2.53818 15.6501 2.436 13.3938 2.9715 11.2471C3.507 9.10034 4.65693 7.15635 6.28046 5.65321C7.90398 4.15007 9.93063 3.15303 12.1122 2.78418C14.2938 2.41534 16.5355 2.69071 18.563 3.57658C20.5904 4.46244 22.3155 5.92033 23.527 7.77171C24.7385 9.62309 25.3837 11.7876 25.3837 14.0001Z" fill="#414141"/>
</svg>
