<svg width="20" height="20" viewBox="0 0 20 20" fill="current" xmlns="http://www.w3.org/2000/svg">
<path d="M12.0016 3.00404C12.0337 2.88398 12.1123 2.78159 12.2199 2.71937C12.3275 2.65715 12.4554 2.64017 12.5755 2.67216C13.7146 2.97848 14.7532 3.57874 15.5872 4.41281C16.4213 5.24689 17.0215 6.28549 17.3278 7.42458C17.3441 7.48418 17.3485 7.54641 17.3406 7.60769C17.3328 7.66898 17.3129 7.72811 17.2821 7.78168C17.2513 7.83526 17.2103 7.88222 17.1613 7.91987C17.1123 7.95752 17.0564 7.98511 16.9967 8.00106C16.937 8.01701 16.8747 8.021 16.8135 8.01281C16.7523 8.00462 16.6932 7.9844 16.6398 7.95332C16.5864 7.92224 16.5397 7.88091 16.5024 7.8317C16.465 7.7825 16.4377 7.7264 16.4221 7.66662C16.1586 6.68661 15.6422 5.79307 14.9246 5.07548C14.207 4.3579 13.3134 3.84148 12.3334 3.57794C12.274 3.56206 12.2182 3.53461 12.1693 3.49717C12.1205 3.45972 12.0794 3.41302 12.0486 3.35973C12.0178 3.30644 11.9978 3.2476 11.9897 3.18657C11.9816 3.12554 11.9857 3.06351 12.0016 3.00404ZM11.6862 5.99333C12.2425 6.14287 12.7496 6.43595 13.1568 6.84321C13.5641 7.25047 13.8572 7.7576 14.0067 8.3138C14.0388 8.43392 14.1173 8.53636 14.2249 8.5986C14.3326 8.66084 14.4605 8.67777 14.5806 8.64568C14.7007 8.61358 14.8032 8.53509 14.8654 8.42746C14.9277 8.31983 14.9446 8.19189 14.9125 8.07177C14.7202 7.35649 14.3433 6.7043 13.8195 6.18055C13.2958 5.6568 12.6436 5.27988 11.9283 5.08755C11.8688 5.07166 11.8068 5.06764 11.7458 5.07572C11.6847 5.08379 11.6259 5.10381 11.5726 5.13463C11.465 5.19687 11.3865 5.29931 11.3544 5.41943C11.3223 5.53954 11.3392 5.66749 11.4015 5.77512C11.4637 5.88274 11.5661 5.96124 11.6862 5.99333ZM17.9353 13.6586C17.8044 14.6764 17.3074 15.6118 16.5372 16.29C15.767 16.9682 14.7762 17.3428 13.75 17.3438C7.63289 17.3438 2.65625 12.3672 2.65625 6.25005C2.65729 5.22383 3.03189 4.23309 3.71005 3.46288C4.38822 2.69267 5.32357 2.19568 6.34141 2.06474C6.57638 2.03646 6.8142 2.085 7.0193 2.20311C7.22439 2.32122 7.38574 2.50254 7.47922 2.71997L9.04883 6.38232C9.12009 6.54807 9.14916 6.7289 9.13343 6.90863C9.11769 7.08836 9.05765 7.26139 8.95867 7.41224L7.65898 9.3981C7.64429 9.41947 7.63537 9.44427 7.63308 9.4701C7.6308 9.49593 7.63522 9.52191 7.64594 9.54552C8.24901 10.7758 9.24654 11.7688 10.4795 12.3663C10.5033 12.3769 10.5294 12.3812 10.5553 12.3787C10.5812 12.3762 10.606 12.367 10.6273 12.3521L12.5831 11.0479C12.7344 10.9466 12.9086 10.8848 13.0899 10.8682C13.2711 10.8515 13.4537 10.8805 13.6209 10.9526L17.28 12.5208C17.4974 12.6143 17.6788 12.7756 17.7969 12.9807C17.915 13.1858 17.9636 13.4236 17.9353 13.6586ZM17.0052 13.5411C17.0086 13.508 17.0013 13.4746 16.9843 13.4461C16.9672 13.4175 16.9414 13.3952 16.9106 13.3825L13.2516 11.8143C13.2277 11.804 13.2016 11.7999 13.1757 11.8023C13.1498 11.8047 13.1249 11.8135 13.1033 11.8279L11.1474 13.1322C10.9903 13.2373 10.8086 13.2998 10.6201 13.3135C10.4315 13.3273 10.2427 13.2918 10.072 13.2106C8.64976 12.5214 7.49916 11.376 6.80352 9.95693C6.72196 9.78724 6.68565 9.59935 6.69811 9.41149C6.71057 9.22363 6.77137 9.04218 6.87461 8.88474L8.17422 6.8988C8.18838 6.87724 8.19696 6.85249 8.19921 6.82679C8.20146 6.80109 8.1973 6.77524 8.18711 6.75154L6.61758 3.08935C6.60593 3.06145 6.5864 3.03755 6.56138 3.02057C6.53637 3.00359 6.50695 2.99426 6.47672 2.99373C6.47079 2.99374 6.46487 2.99413 6.45898 2.9949C5.66747 3.09682 4.94014 3.48342 4.41286 4.08246C3.88558 4.6815 3.59441 5.45201 3.59375 6.25005C3.59679 8.94273 4.6678 11.5242 6.5718 13.4282C8.47581 15.3323 11.0573 16.4033 13.75 16.4063C14.548 16.4056 15.3186 16.1145 15.9176 15.5872C16.5166 15.0599 16.9032 14.3326 17.0052 13.5411Z" fill="#C7C7C7"/>
</svg>
