<svg xmlns="http://www.w3.org/2000/svg" xmlns:xlink="http://www.w3.org/1999/xlink" width="32" height="32" viewBox="0 0 32 32">
  <defs>
    <clipPath id="clip-path">
      <rect id="Rectangle_4163" data-name="Rectangle 4163" width="32" height="32" transform="translate(2164 4470)" fill="#fff" stroke="#707070" stroke-width="1"/>
    </clipPath>
  </defs>
  <g id="Mask_Group_18" data-name="Mask Group 18" transform="translate(-2164 -4470)" clip-path="url(#clip-path)">
    <g id="cloud" transform="translate(2164 4470)">
      <path id="Path_240923" data-name="Path 240923" d="M3.439,9.122h2.5a.625.625,0,0,0,0-1.251h-2.5A.625.625,0,0,0,3.439,9.122Z" fill="#242424"/>
      <path id="Path_240924" data-name="Path 240924" d="M5.94,10.685h-2.5a.625.625,0,0,0,0,1.251h2.5A.625.625,0,0,0,5.94,10.685Z" fill="#242424"/>
      <path id="Path_240925" data-name="Path 240925" d="M5.94,13.5h-2.5a.625.625,0,0,0,0,1.251h2.5A.625.625,0,0,0,5.94,13.5Z" fill="#242424"/>
      <path id="Path_240926" data-name="Path 240926" d="M5.94,16.313h-2.5a.625.625,0,0,0,0,1.251h2.5A.625.625,0,0,0,5.94,16.313Z" fill="#242424"/>
      <path id="Path_240927" data-name="Path 240927" d="M5.94,19.126h-2.5a.625.625,0,0,0,0,1.251h2.5A.625.625,0,0,0,5.94,19.126Z" fill="#242424"/>
      <path id="Path_240928" data-name="Path 240928" d="M5.94,21.94h-2.5a.625.625,0,0,0,0,1.251h2.5A.625.625,0,0,0,5.94,21.94Z" fill="#242424"/>
      <path id="Path_240929" data-name="Path 240929" d="M10.942,14.124a.625.625,0,0,0,.625.625H25.324a.625.625,0,0,0,0-1.251H11.568A.625.625,0,0,0,10.942,14.124Z" fill="#242424"/>
      <path id="Path_240930" data-name="Path 240930" d="M25.324,16.313H11.568a.625.625,0,0,0,0,1.251H25.324A.625.625,0,0,0,25.324,16.313Z" fill="#242424"/>
      <path id="Path_240931" data-name="Path 240931" d="M18.593,19.126H11.568a.625.625,0,0,0,0,1.251h7.025A.625.625,0,0,0,18.593,19.126Z" fill="#242424"/>
      <path id="Path_240932" data-name="Path 240932" d="M16.4,21.94H11.568a.625.625,0,0,0,0,1.251H16.4A.625.625,0,0,0,16.4,21.94Z" fill="#242424"/>
      <path id="Path_240933" data-name="Path 240933" d="M14.82,11.852a.626.626,0,0,0,.854-.229L17.3,8.809a.625.625,0,1,0-1.083-.625L14.591,11A.625.625,0,0,0,14.82,11.852Z" fill="#242424"/>
      <path id="Path_240934" data-name="Path 240934" d="M12.533,11.752a.625.625,0,0,0,.884-.884L12.452,9.9l.965-.965a.625.625,0,0,0-.884-.884L11.126,9.461a.625.625,0,0,0,0,.884Z" fill="#242424"/>
      <path id="Path_240935" data-name="Path 240935" d="M18.473,11.752a.625.625,0,0,0,.884,0l1.407-1.407a.625.625,0,0,0,0-.884L19.357,8.054a.625.625,0,0,0-.884.884l.965.965-.965.965A.625.625,0,0,0,18.473,11.752Z" fill="#242424"/>
      <path id="Path_240936" data-name="Path 240936" d="M30.012,24.662a3.111,3.111,0,0,0-1.249-1.989V4.12a1.878,1.878,0,0,0-1.876-1.876H1.876A1.878,1.878,0,0,0,0,4.12V24.129A1.878,1.878,0,0,0,1.876,26H16.791a2.59,2.59,0,0,0,2.3,3.752H29.435a2.582,2.582,0,0,0,.577-5.094Zm-11.515,0a2.563,2.563,0,0,0-.294.088H9.379V6.308H27.512V22.127a3.163,3.163,0,0,0-1.207,0A4.547,4.547,0,0,0,18.5,24.666ZM1.876,3.494H26.887a.626.626,0,0,1,.625.625v.938H1.251V4.12A.626.626,0,0,1,1.876,3.494ZM1.251,24.129V6.308H8.129V24.754H1.876a.626.626,0,0,1-.625-.625Zm28.185,4.377H19.088a1.329,1.329,0,0,1,0-2.657.625.625,0,0,0,.625-.625,3.29,3.29,0,0,1,5.877-2.012.625.625,0,0,0,.7.208,1.914,1.914,0,0,1,2.523,1.8.625.625,0,0,0,.625.625A1.329,1.329,0,0,1,29.435,28.506Z" fill="#242424"/>
    </g>
  </g>
</svg>
