<svg width="42" height="42" viewBox="0 0 42 42" fill="none" xmlns="http://www.w3.org/2000/svg">
<path fill-rule="evenodd" clip-rule="evenodd" d="M32.9896 11.2898C33.1392 11.1403 33.258 10.9629 33.339 10.7675C33.4201 10.5721 33.4619 10.3627 33.462 10.1512C33.4621 9.93969 33.4206 9.73022 33.3398 9.53476C33.259 9.3393 33.1404 9.16167 32.991 9.01201C32.8415 8.86236 32.664 8.74361 32.4687 8.66255C32.2733 8.58148 32.0639 8.53969 31.8524 8.53956C31.6408 8.53943 31.4314 8.58097 31.2359 8.66179C31.0405 8.74261 30.8628 8.86114 30.7132 9.01061L21 18.7238L11.2896 9.01061C10.9873 8.70837 10.5774 8.53857 10.15 8.53857C9.72254 8.53857 9.31261 8.70837 9.01037 9.01061C8.70813 9.31285 8.53833 9.72278 8.53833 10.1502C8.53833 10.5776 8.70813 10.9876 9.01037 11.2898L18.7236 21.0002L9.01037 30.7106C8.86071 30.8603 8.742 31.0379 8.66101 31.2335C8.58002 31.429 8.53833 31.6386 8.53833 31.8502C8.53833 32.0619 8.58002 32.2714 8.66101 32.467C8.742 32.6625 8.86071 32.8402 9.01037 32.9898C9.31261 33.2921 9.72253 33.4619 10.15 33.4619C10.3616 33.4619 10.5712 33.4202 10.7667 33.3392C10.9622 33.2582 11.1399 33.1395 11.2896 32.9898L21 23.2766L30.7132 32.9898C31.0154 33.2917 31.4252 33.4611 31.8524 33.4609C32.2795 33.4606 32.6891 33.2907 32.991 32.9884C33.2928 32.6862 33.4623 32.2764 33.462 31.8492C33.4618 31.4221 33.2918 31.0125 32.9896 30.7106L23.2764 21.0002L32.9896 11.2898Z" fill="#F3F3F3"/>
</svg>
