<svg xmlns="http://www.w3.org/2000/svg" xmlns:xlink="http://www.w3.org/1999/xlink" width="32" height="32" viewBox="0 0 32 32">
  <defs>
    <clipPath id="clip-path">
      <rect id="Rectangle_4162" data-name="Rectangle 4162" width="32" height="32" transform="translate(2390 4438)" fill="#fff" stroke="#707070" stroke-width="1"/>
    </clipPath>
  </defs>
  <g id="Mask_Group_17" data-name="Mask Group 17" transform="translate(-2390 -4438)" clip-path="url(#clip-path)">
    <g id="infographic" transform="translate(2390 4438)">
      <g id="XMLID_1158_">
        <path id="XMLID_1169_" d="M29.116,3.138H28.6a6.27,6.27,0,0,0-10.863,0H2.884A2.888,2.888,0,0,0,0,6.022V22.213A2.887,2.887,0,0,0,2.884,25.1h10.47l-1.8,3.143h-.265a3.139,3.139,0,0,0-3.135,3.135A.625.625,0,0,0,8.783,32H23.218a.625.625,0,0,0,.623-.669,3.139,3.139,0,0,0-3.135-3.091h-.265l-1.8-3.143h10.47A2.887,2.887,0,0,0,32,22.213V6.022a2.887,2.887,0,0,0-2.884-2.884ZM18.4,4.682l3.645,2.26L19.039,9.133A5,5,0,0,1,18.4,4.682Zm4.967,2.843h4.661a5.019,5.019,0,0,1-8.151,2.542Zm4.819-1.25h-4.4V1.29A5.029,5.029,0,0,1,28.187,6.275ZM22.54,1.29V5.778L18.947,3.55A5.028,5.028,0,0,1,22.54,1.29ZM2.884,4.388h14.3a6.273,6.273,0,1,0,11.967,0,1.636,1.636,0,0,1,1.6,1.633v12.8H1.25V6.022A1.636,1.636,0,0,1,2.884,4.388Zm19.6,26.362H9.515a1.888,1.888,0,0,1,1.779-1.26h9.413A1.889,1.889,0,0,1,22.485,30.75ZM19,28.24H13l1.8-3.143h2.412Zm10.114-4.393H2.884A1.636,1.636,0,0,1,1.25,22.213V20.076h29.5v2.136A1.636,1.636,0,0,1,29.116,23.847Z" fill="#242424"/>
        <path id="XMLID_1168_" d="M18.824,21.337H13.176a.625.625,0,1,0,0,1.25h5.648a.625.625,0,1,0,0-1.25Z" fill="#242424"/>
        <circle id="XMLID_1167_" cx="0.625" cy="0.625" r="0.625" transform="translate(28.24 21.337)" fill="#242424"/>
        <circle id="XMLID_1166_" cx="0.625" cy="0.625" r="0.625" transform="translate(25.729 21.337)" fill="#242424"/>
        <path id="XMLID_1165_" d="M20.654,15.056h8.158a.625.625,0,1,0,0-1.25H20.654a.625.625,0,0,0,0,1.25Z" fill="#242424"/>
        <path id="XMLID_1164_" d="M20.654,17.566h8.158a.625.625,0,1,0,0-1.25H20.654a.625.625,0,0,0,0,1.25Z" fill="#242424"/>
        <path id="XMLID_1159_" d="M3.187,17.566H18.249a.625.625,0,1,0,0-1.25h-.63V13.8a.625.625,0,0,0-.625-.625h-2.51a.625.625,0,0,0-.625.625v2.513H12.6V8.156a.625.625,0,0,0-.625-.625H9.463a.625.625,0,0,0-.625.625v8.161H7.578V6.273a.625.625,0,0,0-.625-.625H4.443a.625.625,0,0,0-.625.625V16.316h-.63a.625.625,0,1,0,0,1.25Zm11.921-3.138h1.26v1.888h-1.26Zm-5.02-5.648h1.26v7.536h-1.26ZM5.068,6.9h1.26v9.418H5.068Z" fill="#242424"/>
      </g>
    </g>
  </g>
</svg>
