<svg width="34" height="34" viewBox="0 0 34 34" fill="none" xmlns="http://www.w3.org/2000/svg">
<path d="M21.692 16.3366L15.317 12.0866C15.197 12.0066 15.0575 11.9607 14.9135 11.9538C14.7694 11.9468 14.6262 11.9791 14.499 12.0471C14.3718 12.1152 14.2655 12.2165 14.1914 12.3402C14.1173 12.4639 14.0781 12.6054 14.0781 12.7496V21.2496C14.0781 21.3939 14.1173 21.5354 14.1914 21.6591C14.2655 21.7828 14.3718 21.8841 14.499 21.9522C14.6262 22.0202 14.7694 22.0525 14.9135 22.0455C15.0575 22.0386 15.197 21.9926 15.317 21.9126L21.692 17.6626C21.8011 17.5899 21.8906 17.4913 21.9525 17.3756C22.0144 17.26 22.0468 17.1308 22.0468 16.9996C22.0468 16.8685 22.0144 16.7393 21.9525 16.6237C21.8906 16.508 21.8011 16.4094 21.692 16.3366ZM15.6719 19.7607V14.2386L19.8135 16.9996L15.6719 19.7607ZM30.8651 9.3365C30.7498 8.88865 30.5296 8.47465 30.2227 8.12865C29.9159 7.78266 29.5311 7.51459 29.1003 7.34657C24.5658 5.60407 17.302 5.63143 17.005 5.63196C16.6982 5.63103 9.4342 5.60407 4.89972 7.34657C4.46888 7.5146 4.08417 7.78267 3.77734 8.12867C3.47051 8.47466 3.25036 8.88866 3.13504 9.3365C2.79544 10.6403 2.39062 13.0283 2.39062 16.9996C2.39062 20.9711 2.79544 23.359 3.13491 24.6628C3.25025 25.1106 3.47043 25.5246 3.77728 25.8706C4.08413 26.2166 4.46886 26.4847 4.89972 26.6527C9.4342 28.3952 16.6979 28.3687 16.995 28.3673C17.01 28.3673 17.0416 28.3676 17.089 28.3676C18.0072 28.3676 24.7881 28.3098 29.1003 26.6527C29.5311 26.4847 29.9158 26.2166 30.2227 25.8706C30.5295 25.5246 30.7496 25.1106 30.865 24.6628C31.2046 23.359 31.6094 20.9711 31.6094 16.9996C31.6094 13.0283 31.2046 10.6405 30.8651 9.3365ZM29.3226 24.2612C29.2714 24.464 29.1727 24.6517 29.0346 24.8088C28.8966 24.9659 28.7232 25.088 28.5287 25.165C24.2768 26.7989 17.0776 26.776 16.995 26.7736C16.9224 26.7752 9.7232 26.7988 5.47134 25.165C5.2768 25.088 5.10334 24.9659 4.96528 24.8088C4.82721 24.6516 4.72849 24.4639 4.67726 24.261C4.36116 23.0474 3.98438 20.8025 3.98438 16.9996C3.98438 13.197 4.36116 10.9519 4.67739 9.73812C4.72862 9.53533 4.82733 9.34762 4.96538 9.19048C5.10342 9.03334 5.27684 8.91127 5.47134 8.83433C9.72334 7.20034 16.9227 7.22372 17.005 7.22571C17.077 7.22305 24.2769 7.20047 28.5287 8.83433C28.7232 8.91127 28.8966 9.03336 29.0347 9.19053C29.1727 9.34769 29.2714 9.53543 29.3226 9.73825C29.6388 10.9519 30.0156 13.197 30.0156 16.9996C30.0156 20.8023 29.6388 23.0474 29.3226 24.2612Z" fill="#1EA6FB"/>
</svg>
