<svg width="20" height="20" viewBox="0 0 20 20" fill="none" xmlns="http://www.w3.org/2000/svg">
<path d="M12.76 9.60994L9.01 7.10994C8.93941 7.06288 8.85737 7.03586 8.77263 7.03177C8.68789 7.02767 8.60362 7.04665 8.52882 7.08668C8.45402 7.12671 8.39149 7.18629 8.34789 7.25907C8.30429 7.33185 8.28126 7.4151 8.28125 7.49994V12.4999C8.28126 12.5848 8.30429 12.668 8.34789 12.7408C8.39149 12.8136 8.45402 12.8732 8.52882 12.9132C8.60362 12.9532 8.68789 12.9722 8.77263 12.9681C8.85737 12.964 8.93941 12.937 9.01 12.8899L12.76 10.3899C12.8242 10.3471 12.8768 10.2891 12.9132 10.2211C12.9496 10.1531 12.9687 10.0771 12.9687 9.99994C12.9687 9.92277 12.9496 9.8468 12.9132 9.77877C12.8768 9.71074 12.8242 9.65274 12.76 9.60994ZM9.21875 11.6241V8.37579L11.655 9.99994L9.21875 11.6241ZM18.1559 5.4922C18.0881 5.22876 17.9586 4.98523 17.7781 4.78171C17.5976 4.57818 17.3713 4.42049 17.1178 4.32165C14.4505 3.29665 10.1777 3.31275 10.003 3.31306C9.8225 3.31251 5.54953 3.29665 2.88219 4.32165C2.62875 4.4205 2.40246 4.57819 2.22197 4.78171C2.04148 4.98524 1.91197 5.22877 1.84414 5.4922C1.64437 6.25915 1.40625 7.66384 1.40625 9.99994C1.40625 12.3361 1.64438 13.7407 1.84406 14.5077C1.91191 14.7711 2.04143 15.0146 2.22193 15.2182C2.40243 15.4217 2.62874 15.5794 2.88219 15.6782C5.54953 16.7032 9.82227 16.6876 9.99703 16.6868C10.0059 16.6868 10.0245 16.687 10.0523 16.687C10.5925 16.687 14.5813 16.653 17.1178 15.6782C17.3712 15.5794 17.5975 15.4217 17.778 15.2182C17.9585 15.0146 18.088 14.7711 18.1559 14.5077C18.3556 13.7407 18.5938 12.3361 18.5938 9.99994C18.5938 7.66384 18.3556 6.25923 18.1559 5.4922ZM17.2486 14.2714C17.2185 14.3907 17.1604 14.5011 17.0792 14.5936C16.998 14.686 16.896 14.7578 16.7816 14.8031C14.2805 15.7642 10.0456 15.7507 9.99703 15.7493C9.95438 15.7502 5.71953 15.7642 3.21844 14.8031C3.104 14.7578 3.00197 14.686 2.92075 14.5935C2.83953 14.5011 2.78146 14.3907 2.75133 14.2713C2.56539 13.5574 2.34375 12.2369 2.34375 9.99994C2.34375 7.76306 2.56539 6.44243 2.75141 5.72845C2.78154 5.60916 2.83961 5.49874 2.92081 5.40631C3.00201 5.31387 3.10403 5.24207 3.21844 5.19681C5.71961 4.23564 9.95453 4.24939 10.003 4.25056C10.0453 4.249 14.2805 4.23572 16.7816 5.19681C16.896 5.24207 16.998 5.31389 17.0792 5.40634C17.1604 5.49879 17.2185 5.60922 17.2486 5.72853C17.4346 6.44243 17.6562 7.76306 17.6562 9.99994C17.6562 12.2368 17.4346 13.5574 17.2486 14.2714Z" fill="#C7C7C7"/>
</svg>
