<svg xmlns="http://www.w3.org/2000/svg" xmlns:xlink="http://www.w3.org/1999/xlink" width="32" height="32" viewBox="0 0 32 32">
  <defs>
    <clipPath id="clip-path">
      <rect id="Rectangle_4156" data-name="Rectangle 4156" width="32" height="32" transform="translate(2453 4367)" fill="#fff" stroke="#707070" stroke-width="1"/>
    </clipPath>
  </defs>
  <g id="Mask_Group_13" data-name="Mask Group 13" transform="translate(-2453 -4367)" clip-path="url(#clip-path)">
    <g id="peace" transform="translate(2453 4367)">
      <path id="Path_240914" data-name="Path 240914" d="M31.11,10.353a1.787,1.787,0,0,0-2.41.759l-.006.01-2.508,4.105a1.693,1.693,0,0,0-1-.22,1.633,1.633,0,0,0-1.119.584c-.179.216-.772.956-1.4,1.739-.594.742-1.208,1.509-1.379,1.715A11.417,11.417,0,0,1,19.128,20.9,9.183,9.183,0,0,0,16,24.105,9.183,9.183,0,0,0,12.872,20.9a11.412,11.412,0,0,1-2.159-1.851C10.359,18.618,8.275,16,7.935,15.59a1.633,1.633,0,0,0-1.119-.584,1.692,1.692,0,0,0-1,.22L3.306,11.121l-.006-.01a1.787,1.787,0,0,0-2.41-.759,1.759,1.759,0,0,0-.707,2.325l0,.006c.886,1.979,2.372,5.688,3.384,7.884a9.929,9.929,0,0,0,3.045,4.2l2.248,2.044V27H8.5a.625.625,0,0,0-.625.625v3.751A.625.625,0,0,0,8.5,32h15a.625.625,0,0,0,.625-.625V27.624A.625.625,0,0,0,23.5,27h-.366v-.191l2.248-2.044a9.93,9.93,0,0,0,3.045-4.2c.731-1.607,1.593-3.665,2.286-5.318.495-1.181.922-2.2,1.1-2.566l0-.006a1.759,1.759,0,0,0-.707-2.325ZM9.91,26.069l-2.453-2.23A8.779,8.779,0,0,1,4.708,20.05c-1-2.176-2.518-5.956-3.394-7.905a.5.5,0,0,1,.179-.7c.25-.137.53-.014.75.33l2.788,4.564a2.435,2.435,0,0,0,.194,1.264,26.748,26.748,0,0,0,1.984,4.041.625.625,0,1,0,1.063-.659,25.453,25.453,0,0,1-1.885-3.842c-.238-.6-.08-.735-.02-.785a.457.457,0,0,1,.337-.108.391.391,0,0,1,.269.138c.172.207.787.976,1.382,1.719.626.782,1.217,1.52,1.4,1.736a12.53,12.53,0,0,0,2.386,2.064c1.61,1.169,3,2.178,3.237,4.524V27H10.114v-.468A.625.625,0,0,0,9.91,26.069Zm-.786,2.18h6.252v2.5H9.123Zm13.754,2.5H16.625v-2.5h6.252Zm7.81-18.606c-.191.4-.6,1.379-1.123,2.622-.69,1.646-1.548,3.694-2.271,5.284a8.78,8.78,0,0,1-2.748,3.789l-2.453,2.23a.625.625,0,0,0-.2.463V27H16.625v-.567c.324-3.582,3.666-4.215,5.623-6.588.179-.215.769-.952,1.394-1.733.6-.745,1.213-1.515,1.385-1.722a.391.391,0,0,1,.269-.138.458.458,0,0,1,.337.108c.06.05.218.183-.02.785a25.429,25.429,0,0,1-1.885,3.842.625.625,0,1,0,1.063.659,26.734,26.734,0,0,0,1.984-4.041,2.434,2.434,0,0,0,.194-1.264l2.788-4.563c.22-.344.5-.467.75-.33a.5.5,0,0,1,.179.7Z" transform="translate(0 0)" fill="#242424"/>
      <path id="Path_240915" data-name="Path 240915" d="M15.838,11.557a.626.626,0,0,0,.324,0,4.488,4.488,0,0,0,2.186-1.9,2.03,2.03,0,0,0-.356-2.74A1.821,1.821,0,0,0,16,6.759a1.821,1.821,0,0,0-1.991.158,2.03,2.03,0,0,0-.356,2.741,4.489,4.489,0,0,0,2.186,1.9ZM14.77,7.909a.58.58,0,0,1,.788.065.625.625,0,0,0,.884,0,.58.58,0,0,1,.788-.065c.3.227.309.647.035,1.123A3.785,3.785,0,0,1,16,10.277a3.784,3.784,0,0,1-1.265-1.244C14.461,8.556,14.473,8.137,14.77,7.909Z" transform="translate(0 0)" fill="#242424"/>
      <path id="Path_240916" data-name="Path 240916" d="M7.248,8.744a2.8,2.8,0,0,0,.944,2.092,2.792,2.792,0,0,0,2.092,3.624,2.808,2.808,0,0,0,3.624,2.092,2.808,2.808,0,0,0,4.185,0,2.808,2.808,0,0,0,3.624-2.092,2.792,2.792,0,0,0,2.092-3.624,2.808,2.808,0,0,0,0-4.185,2.791,2.791,0,0,0-2.092-3.624A2.808,2.808,0,0,0,18.093.935a2.808,2.808,0,0,0-4.185,0,2.792,2.792,0,0,0-3.624,2.092A2.792,2.792,0,0,0,8.191,6.652,2.8,2.8,0,0,0,7.248,8.744ZM9.08,7.537l1.66.445a5.37,5.37,0,0,0,0,1.524l-1.66.445A1.549,1.549,0,0,1,9.08,7.537ZM16,4.68a4.064,4.064,0,1,1-4.064,4.064A4.068,4.068,0,0,1,16,4.68Zm6.92,2.857a1.549,1.549,0,0,1,0,2.414l-1.66-.445a5.371,5.371,0,0,0,0-1.524ZM9.5,12.5a1.547,1.547,0,0,1-.1-1.336l1.661-.445a5.316,5.316,0,0,0,.764,1.318l-1.217,1.217A1.547,1.547,0,0,1,9.5,12.5Zm2.746,2.746a1.547,1.547,0,0,1-.754-1.108l1.217-1.217a5.318,5.318,0,0,0,1.318.764l-.445,1.661A1.547,1.547,0,0,1,12.249,15.241ZM16,16.246a1.547,1.547,0,0,1-1.207-.582L15.238,14a5.371,5.371,0,0,0,1.524,0l.445,1.66A1.547,1.547,0,0,1,16,16.246Zm3.751-1.005a1.547,1.547,0,0,1-1.336.1l-.445-1.66a5.318,5.318,0,0,0,1.318-.764l1.217,1.217A1.547,1.547,0,0,1,19.751,15.241ZM22.5,12.5a1.547,1.547,0,0,1-1.108.754l-1.217-1.217a5.318,5.318,0,0,0,.764-1.318l1.66.445A1.547,1.547,0,0,1,22.5,12.5Zm0-7.5a1.547,1.547,0,0,1,.1,1.336l-1.661.445a5.318,5.318,0,0,0-.764-1.318l1.217-1.217a1.547,1.547,0,0,1,1.108.754ZM19.751,2.247a1.547,1.547,0,0,1,.754,1.108L19.288,4.572a5.315,5.315,0,0,0-1.318-.764l.445-1.661a1.547,1.547,0,0,1,1.336.1ZM16,1.242a1.547,1.547,0,0,1,1.207.582l-.445,1.66a5.37,5.37,0,0,0-1.524,0l-.445-1.66A1.547,1.547,0,0,1,16,1.242ZM12.249,2.247a1.547,1.547,0,0,1,1.336-.1l.445,1.661a5.318,5.318,0,0,0-1.318.764L11.5,3.355a1.547,1.547,0,0,1,.754-1.108ZM9.5,4.993a1.547,1.547,0,0,1,1.108-.754l1.217,1.217a5.318,5.318,0,0,0-.764,1.318L9.4,6.329A1.547,1.547,0,0,1,9.5,4.993Z" transform="translate(0 0)" fill="#242424"/>
    </g>
  </g>
</svg>
