<svg xmlns="http://www.w3.org/2000/svg" xmlns:xlink="http://www.w3.org/1999/xlink" width="32" height="32" viewBox="0 0 32 32">
  <defs>
    <clipPath id="clip-path">
      <rect id="Rectangle_4155" data-name="Rectangle 4155" width="32" height="32" transform="translate(2403 4367)" fill="#fff" stroke="#707070" stroke-width="1"/>
    </clipPath>
  </defs>
  <g id="Mask_Group_12" data-name="Mask Group 12" transform="translate(-2403 -4367)" clip-path="url(#clip-path)">
    <g id="good-idea" transform="translate(2403 4367)">
      <path id="Path_240906" data-name="Path 240906" d="M16,.449A9.793,9.793,0,0,0,9.045,3.256,10.065,10.065,0,0,0,6.1,10.6c0,3.089,1.463,4.959,2.756,6.609,1.062,1.355,1.98,2.526,1.98,4.17v.975h-.831A1.137,1.137,0,0,0,8.87,23.494v2.043a1.137,1.137,0,0,0,1.135,1.135H11.3v1.755a3.129,3.129,0,0,0,3.125,3.125h3.158A3.129,3.129,0,0,0,20.7,28.427V26.672h1.289a1.137,1.137,0,0,0,1.135-1.135V23.494a1.137,1.137,0,0,0-1.135-1.135h-.83v-.975c0-1.645.917-2.815,1.98-4.17,1.293-1.65,2.759-3.52,2.756-6.609a10.064,10.064,0,0,0-2.944-7.348A9.8,9.8,0,0,0,16,.449Zm3.454,27.978A1.877,1.877,0,0,1,17.579,30.3H14.421a1.877,1.877,0,0,1-1.875-1.875V26.672h6.908Zm2.424-3H10.12V23.609H21.878Zm.281-8.98c-1.1,1.409-2.246,2.865-2.246,4.942v.975H12.087v-.975c0-2.076-1.142-3.533-2.246-4.942-1.226-1.564-2.493-3.18-2.49-5.836A8.8,8.8,0,0,1,9.922,4.147,8.54,8.54,0,0,1,15.991,1.7h.018a8.537,8.537,0,0,1,6.069,2.449,8.8,8.8,0,0,1,2.571,6.458c0,2.656-1.265,4.273-2.49,5.836Z" transform="translate(0 0)" fill="#242424"/>
      <path id="Path_240907" data-name="Path 240907" d="M21.619,8.339,18.5,7.251l-2-2.632a.625.625,0,0,0-1,0l-2,2.632L10.381,8.339a.625.625,0,0,0-.308.946L11.958,12l.072,3.306a.625.625,0,0,0,.805.585L16,14.938l3.165.954a.625.625,0,0,0,.805-.585L20.041,12l1.886-2.716a.625.625,0,0,0-.308-.947Zm-2.712,3.1a.625.625,0,0,0-.111.343l-.057,2.672-2.558-.771a.624.624,0,0,0-.361,0l-2.558.771L13.2,11.786a.625.625,0,0,0-.111-.343L11.569,9.248l2.523-.879a.624.624,0,0,0,.292-.212L16,6.03l1.616,2.127a.625.625,0,0,0,.292.212l2.522.879Z" transform="translate(0 0)" fill="#242424"/>
      <path id="Path_240908" data-name="Path 240908" d="M26.934,5.585a.625.625,0,0,0,.882-.052l1.334-1.5a.625.625,0,0,0-.935-.83L26.882,4.7a.625.625,0,0,0,.052.882Z" transform="translate(0)" fill="#242424"/>
      <path id="Path_240909" data-name="Path 240909" d="M27.817,15.3a.625.625,0,0,0-.935.83l1.334,1.5a.625.625,0,0,0,.935-.83Z" transform="translate(0 0)" fill="#242424"/>
      <path id="Path_240910" data-name="Path 240910" d="M31.375,9.789H29.364a.625.625,0,0,0,0,1.25h2.011a.625.625,0,0,0,0-1.25Z" transform="translate(0 0)" fill="#242424"/>
      <path id="Path_240911" data-name="Path 240911" d="M5.066,15.244a.625.625,0,0,0-.882.052L2.849,16.8a.625.625,0,0,0,.935.83l1.334-1.5a.625.625,0,0,0-.052-.882Z" transform="translate(0 0)" fill="#242424"/>
      <path id="Path_240912" data-name="Path 240912" d="M3.784,3.2a.625.625,0,0,0-.935.83l1.334,1.5a.625.625,0,0,0,.935-.83Z" transform="translate(0 0)" fill="#242424"/>
      <path id="Path_240913" data-name="Path 240913" d="M3.259,10.414a.625.625,0,0,0-.625-.625H.625a.625.625,0,0,0,0,1.25H2.634A.625.625,0,0,0,3.259,10.414Z" transform="translate(0 0)" fill="#242424"/>
    </g>
  </g>
</svg>
